<svg width="18" height="20" viewBox="0 0 18 20" fill="none" xmlns="http://www.w3.org/2000/svg">
<path d="M8.45809 9.59302L0.970337 17.5922C1.20257 18.4629 1.99075 19.1001 2.92672 19.1001C3.2997 19.1001 3.65157 19.0009 3.95418 18.8169L3.97529 18.8027L12.406 13.9112L8.45809 9.58594V9.59302Z" fill="#EA4335"/>
<path d="M16.0445 8.23379H16.0375L12.3992 6.10303L8.29639 9.77701L12.4132 13.9182L16.0375 11.8157C16.6708 11.4689 17.1001 10.7964 17.1001 10.0248C17.1001 9.25316 16.6779 8.58066 16.0445 8.24087V8.23379Z" fill="#FBBC04"/>
<path d="M0.970398 2.41455C0.928174 2.58445 0.900024 2.75434 0.900024 2.93839V17.0751C0.900024 17.2591 0.921136 17.429 0.970398 17.5989L8.71853 9.80498L0.970398 2.41455Z" fill="#4285F4"/>
<path d="M8.51439 10.0034L12.392 6.10294L3.96825 1.19014C3.66565 1.00609 3.30674 0.899902 2.91969 0.899902C1.99075 0.899902 1.19553 1.54409 0.970337 2.40772L8.52142 9.99636L8.51439 10.0034Z" fill="#34A853"/>
</svg>
