<svg width="48" height="48" viewBox="0 0 48 48" fill="none" xmlns="http://www.w3.org/2000/svg">
<path d="M35 41C36.1046 41 37 40.1046 37 39V9C37 7.89543 36.1046 7 35 7H20.1955C19.6592 7 19.1454 7.21539 18.7694 7.59782L11.5739 14.9163C11.2061 15.2904 11 15.794 11 16.3185V39C11 40.1046 11.8954 41 13 41H35Z" stroke="black" stroke-width="1.5"/>
<path d="M31.5 25C31.5 29.1421 28.1421 32.5 24 32.5C19.8579 32.5 16.5 29.1421 16.5 25C16.5 20.8579 19.8579 17.5 24 17.5C28.1421 17.5 31.5 20.8579 31.5 25Z" stroke="black" stroke-width="1.5"/>
<path d="M27.75 25H24H20.25" stroke="black" stroke-width="1.5" stroke-linecap="round"/>
<path d="M24 21.25V25V28.75" stroke="black" stroke-width="1.5" stroke-linecap="round"/>
</svg>
