<svg width="20" height="20" viewBox="0 0 20 20" fill="none" xmlns="http://www.w3.org/2000/svg">
<path d="M10.193 5.90759C10.9141 5.90759 11.818 5.44377 12.3562 4.82533C12.8438 4.26487 13.1992 3.48217 13.1992 2.69946C13.1992 2.59316 13.1891 2.48687 13.1687 2.3999C12.3664 2.42889 11.4016 2.91204 10.8227 3.55947C10.3656 4.05229 9.94922 4.82533 9.94922 5.6177C9.94922 5.73366 9.96953 5.84962 9.97969 5.88827C10.0305 5.89793 10.1117 5.90759 10.193 5.90759ZM7.65391 17.5999C8.63906 17.5999 9.07578 16.9718 10.3047 16.9718C11.5539 16.9718 11.8281 17.5806 12.925 17.5806C14.0016 17.5806 14.7227 16.6336 15.4031 15.7059C16.1648 14.643 16.4797 13.5994 16.5 13.5511C16.4289 13.5318 14.3672 12.7297 14.3672 10.4782C14.3672 8.52629 15.9922 7.64695 16.0836 7.5793C15.007 6.11052 13.3719 6.07187 12.925 6.07187C11.7164 6.07187 10.7313 6.76761 10.1117 6.76761C9.44141 6.76761 8.55781 6.11052 7.51172 6.11052C5.52109 6.11052 3.5 7.67593 3.5 10.6328C3.5 12.4688 4.25156 14.4111 5.17578 15.6673C5.96797 16.7302 6.65859 17.5999 7.65391 17.5999Z" fill="black"/>
</svg>
