<svg width="24" height="24" viewBox="0 0 24 24" fill="none" xmlns="http://www.w3.org/2000/svg">
<path d="M7.74144 2.67103C8.49592 2.28476 9.42066 2.57438 9.82021 3.32208L11.3639 6.21084C11.6565 6.75841 11.5044 7.43773 11.0062 7.80812L9.58828 8.86234C9.5004 8.92768 9.47168 9.03359 9.50635 9.1228C9.76905 9.79872 10.4508 11.3395 11.5531 12.4422C12.6558 13.5452 14.202 14.2326 14.8804 14.4979C14.9699 14.5329 15.0762 14.5041 15.1416 14.4159L16.1931 12.9979C16.5631 12.4989 17.2428 12.3462 17.7906 12.6391L20.6782 14.1831C21.4255 14.5827 21.7151 15.5075 21.3292 16.2622L19.4121 20.0107C18.91 20.9925 17.8954 21.6519 16.763 21.4715C14.6856 21.1406 10.9919 20.0555 7.46697 16.5295C3.94265 13.0042 2.85942 9.3148 2.52961 7.23974C2.34972 6.10788 3.00853 5.09415 3.98897 4.59219L7.74144 2.67103Z" fill="black"/>
</svg>
