<svg width="24" height="24" viewBox="0 0 24 24" fill="none" xmlns="http://www.w3.org/2000/svg">
<path fill-rule="evenodd" clip-rule="evenodd" d="M21.5 12C21.5 17.2467 17.2467 21.5 12 21.5C6.75329 21.5 2.5 17.2467 2.5 12C2.5 6.75329 6.75329 2.5 12 2.5C17.2467 2.5 21.5 6.75329 21.5 12ZM12 13.5C12.4142 13.5 12.75 13.1642 12.75 12.75V7.25C12.75 6.83579 12.4142 6.5 12 6.5C11.5858 6.5 11.25 6.83579 11.25 7.25V12.75C11.25 13.1642 11.5858 13.5 12 13.5ZM12 15.5C12.5523 15.5 13 15.9477 13 16.5C13 17.0523 12.5523 17.5 12 17.5C11.4477 17.5 11 17.0523 11 16.5C11 15.9477 11.4477 15.5 12 15.5Z" fill="black"/>
</svg>
