<svg width="16" height="16" viewBox="0 0 16 16" fill="none" xmlns="http://www.w3.org/2000/svg">
<g clip-path="url(#clip0_28166_57164)">
<path d="M7.99999 15.7397C12.2745 15.7397 15.7397 12.2745 15.7397 7.99999C15.7397 3.72545 12.2745 0.260254 7.99999 0.260254C3.72545 0.260254 0.260254 3.72545 0.260254 7.99999C0.260254 12.2745 3.72545 15.7397 7.99999 15.7397Z" fill="#BBC1F9"/>
<path d="M7.99983 13.8651C11.239 13.8651 13.8649 11.2393 13.8649 8.00008C13.8649 4.76089 11.239 2.13501 7.99983 2.13501C4.76065 2.13501 2.13477 4.76089 2.13477 8.00008C2.13477 11.2393 4.76065 13.8651 7.99983 13.8651Z" fill="#D1D4FB"/>
<path d="M5.896 4.80054H8.61386C10.1883 4.80054 11.0928 5.77174 11.0928 7.13547C11.0928 8.4992 10.1739 9.4704 8.576 9.4704H7.33173V11.7291H5.896V4.80054ZM8.34613 8.31307C9.19786 8.31307 9.6144 7.83467 9.6096 7.136C9.6144 6.44694 9.19786 5.98294 8.34613 5.97814H7.33173V8.31307H8.34613Z" fill="#7B87F4"/>
</g>
<defs>
<clipPath id="clip0_28166_57164">
<rect width="16" height="16" fill="white"/>
</clipPath>
</defs>
</svg>
