<svg width="16" height="16" viewBox="0 0 16 16" fill="none" xmlns="http://www.w3.org/2000/svg">
<path fill-rule="evenodd" clip-rule="evenodd" d="M8 1.25C4.27208 1.25 1.25 4.27208 1.25 8C1.25 11.7279 4.27208 14.75 8 14.75C11.7279 14.75 14.75 11.7279 14.75 8C14.75 4.27208 11.7279 1.25 8 1.25ZM8 5.44995C7.49709 5.44995 7.25 5.792 7.25 6.02754C7.25 6.44175 6.91421 6.77754 6.5 6.77754C6.08579 6.77754 5.75 6.44175 5.75 6.02754C5.75 4.79667 6.84605 3.94995 8 3.94995C9.15395 3.94995 10.25 4.79667 10.25 6.02754C10.25 6.94998 9.59205 7.47579 9.13954 7.72596C9.00568 7.79997 8.89887 7.89251 8.83151 7.98283C8.76659 8.06987 8.75 8.13708 8.75 8.18564V8.26658C8.75 8.68079 8.41421 9.01658 8 9.01658C7.58579 9.01658 7.25 8.68079 7.25 8.26658V8.18564C7.25 7.31758 7.87308 6.71217 8.41377 6.41323C8.54294 6.34182 8.63335 6.26759 8.68663 6.20003C8.73157 6.14304 8.75 6.09312 8.75 6.02754C8.75 5.792 8.50291 5.44995 8 5.44995ZM8 9.90003C8.55228 9.90003 9 10.3477 9 10.9C9 11.4523 8.55228 11.9 8 11.9C7.44772 11.9 7 11.4523 7 10.9C7 10.3477 7.44772 9.90003 8 9.90003Z" fill="black"/>
</svg>
