<svg width="24" height="24" viewBox="0 0 24 24" fill="none" xmlns="http://www.w3.org/2000/svg">
<path fill-rule="evenodd" clip-rule="evenodd" d="M21.5 12C21.5 17.2467 17.2467 21.5 12 21.5C6.75329 21.5 2.5 17.2467 2.5 12C2.5 6.75329 6.75329 2.5 12 2.5C17.2467 2.5 21.5 6.75329 21.5 12ZM11 16.5C11 15.9477 11.4477 15.5 12 15.5C12.5523 15.5 13 15.9477 13 16.5C13 17.0523 12.5523 17.5 12 17.5C11.4477 17.5 11 17.0523 11 16.5ZM10.25 9.46264C10.25 8.7383 10.9448 8 12 8C13.0552 8 13.75 8.7383 13.75 9.46264C13.75 9.83324 13.5485 10.1308 13.1707 10.3947C12.3027 11.0013 11.25 12.0167 11.25 13.4194V13.5C11.25 13.9142 11.5858 14.25 12 14.25C12.4142 14.25 12.75 13.9142 12.75 13.5V13.4194C12.75 12.7998 13.2402 12.176 14.0298 11.6243C14.6295 11.2053 15.25 10.5077 15.25 9.46264C15.25 7.74297 13.7062 6.5 12 6.5C10.2938 6.5 8.75 7.74297 8.75 9.46264C8.75 9.87686 9.08579 10.2126 9.5 10.2126C9.91421 10.2126 10.25 9.87686 10.25 9.46264Z" fill="black"/>
</svg>
