<svg width="20" height="20" viewBox="0 0 20 20" fill="none" xmlns="http://www.w3.org/2000/svg">
<path fill-rule="evenodd" clip-rule="evenodd" d="M18 10C18 14.4183 14.4183 18 10 18C5.58172 18 2 14.4183 2 10C2 5.58172 5.58172 2 10 2C14.4183 2 18 5.58172 18 10ZM9.00001 13.9002C9.00001 13.3479 9.44773 12.9002 10 12.9002C10.5523 12.9002 11 13.3479 11 13.9002C11 14.4524 10.5523 14.9002 10 14.9002C9.44773 14.9002 9.00001 14.4524 9.00001 13.9002ZM8.65001 7.84108C8.65001 7.32831 9.15861 6.75016 10 6.75016C10.8414 6.75016 11.35 7.32831 11.35 7.84108C11.35 8.08946 11.2181 8.30333 10.9174 8.51138C10.1837 9.01914 9.25001 9.89698 9.25001 11.1331V11.2002C9.25001 11.6144 9.5858 11.9502 10 11.9502C10.4142 11.9502 10.75 11.6144 10.75 11.2002V11.1331C10.75 10.6867 11.1123 10.2007 11.771 9.74481C12.2915 9.38464 12.85 8.77052 12.85 7.84108C12.85 6.32043 11.4782 5.25016 10 5.25016C8.52182 5.25016 7.15001 6.32043 7.15001 7.84108C7.15001 8.2553 7.4858 8.59108 7.90001 8.59108C8.31422 8.59108 8.65001 8.2553 8.65001 7.84108Z" fill="black"/>
</svg>
