<svg width="24" height="24" viewBox="0 0 24 24" fill="none" xmlns="http://www.w3.org/2000/svg">
<path fill-rule="evenodd" clip-rule="evenodd" d="M2.5 6.35294C2.5 5.05345 3.51269 4 4.7619 4H19.2381C20.4873 4 21.5 5.05345 21.5 6.35294V8.23529C21.5 9.03755 20.874 9.57175 20.3072 9.77586C19.421 10.095 18.7857 10.9709 18.7857 12C18.7857 13.0291 19.421 13.905 20.3072 14.2241C20.874 14.4283 21.5 14.9624 21.5 15.7647V17.6471C21.5 18.9466 20.4873 20 19.2381 20H4.76191C3.51269 20 2.5 18.9466 2.5 17.6471V15.7647C2.5 14.9624 3.126 14.4283 3.69276 14.2241C4.57897 13.905 5.21429 13.0291 5.21429 12C5.21429 10.9709 4.57898 10.095 3.69276 9.77586C3.126 9.57175 2.5 9.03755 2.5 8.23529V6.35294ZM12.6083 8.5H10V15.5H11.3825V13.2182H12.576C13.0799 13.2182 13.5146 13.1199 13.8802 12.9233C14.2458 12.7235 14.5238 12.448 14.7143 12.0967C14.9048 11.7422 15 11.3313 15 10.864C15 10.3999 14.9063 9.98895 14.7189 9.63122C14.5315 9.27348 14.2565 8.99632 13.894 8.79972C13.5346 8.59991 13.106 8.5 12.6083 8.5ZM11.3825 12.0483H12.3594C12.6267 12.0483 12.851 12 13.0323 11.9033C13.2166 11.8034 13.3533 11.6648 13.4424 11.4876C13.5315 11.3103 13.576 11.1024 13.576 10.864C13.576 10.6255 13.5315 10.4192 13.4424 10.2452C13.3533 10.0679 13.2166 9.93255 13.0323 9.83909C12.8479 9.7424 12.6221 9.69406 12.3548 9.69406H11.3825V12.0483Z" fill="black"/>
</svg>
