<svg width="16" height="16" viewBox="0 0 16 16" fill="none" xmlns="http://www.w3.org/2000/svg">
<path fill-rule="evenodd" clip-rule="evenodd" d="M3.68183 7.73535C3.30526 7.73535 3 8.04136 3 8.41884C3 8.79632 3.30526 9.10233 3.68183 9.10233H5.04548C5.42204 9.10233 5.7273 8.79632 5.7273 8.41884C5.7273 8.04136 5.42204 7.73535 5.04548 7.73535H3.68183ZM10.9545 7.73535C10.578 7.73535 10.2727 8.04136 10.2727 8.41884C10.2727 8.79632 10.578 9.10233 10.9545 9.10233H12.3182C12.6947 9.10233 13 8.79632 13 8.41884C13 8.04136 12.6947 7.73535 12.3182 7.73535H10.9545Z" fill="black"/>
<path fill-rule="evenodd" clip-rule="evenodd" d="M4.74109 5.02752C5.10259 4.92182 5.48112 5.12991 5.58656 5.49229L6.49862 8.62699L7.3421 5.50499C7.42196 5.20942 7.68818 5.00317 7.99364 5.00021C8.2991 4.99725 8.56924 5.19832 8.65477 5.49229L9.56683 8.62699L10.4103 5.50499C10.5088 5.14064 10.8832 4.92527 11.2467 5.02395C11.6101 5.12262 11.825 5.49799 11.7265 5.86234L10.2493 11.3302C10.1694 11.6258 9.90318 11.8321 9.59772 11.835C9.29227 11.838 9.02212 11.6369 8.93659 11.3429L8.02453 8.20825L7.18105 11.3302C7.10119 11.6258 6.83497 11.8321 6.52951 11.835C6.22405 11.838 5.95391 11.6369 5.86838 11.3429L4.27745 5.87504C4.17201 5.51266 4.37959 5.13321 4.74109 5.02752Z" fill="black"/>
<rect x="0.75" y="0.75" width="14.5" height="14.5" rx="2.25" stroke="black" stroke-width="1.5"/>
</svg>
