<svg width="16" height="16" viewBox="0 0 16 16" fill="none" xmlns="http://www.w3.org/2000/svg">
<path fill-rule="evenodd" clip-rule="evenodd" d="M14.3996 7.99961C14.3996 11.5342 11.5342 14.3996 7.99961 14.3996C4.46499 14.3996 1.59961 11.5342 1.59961 7.99961C1.59961 4.46499 4.46499 1.59961 7.99961 1.59961C11.5342 1.59961 14.3996 4.46499 14.3996 7.99961ZM4.2496 7.99951C4.2496 7.5853 4.58539 7.24951 4.9996 7.24951H7.2496V4.99951C7.2496 4.5853 7.58539 4.24951 7.9996 4.24951C8.41382 4.24951 8.7496 4.5853 8.7496 4.99951V7.24951H10.9996C11.4138 7.24951 11.7496 7.5853 11.7496 7.99951C11.7496 8.41373 11.4138 8.74951 10.9996 8.74951H8.7496V10.9995C8.7496 11.4137 8.41382 11.7495 7.9996 11.7495C7.58539 11.7495 7.2496 11.4137 7.2496 10.9995V8.74951H4.9996C4.58539 8.74951 4.2496 8.41373 4.2496 7.99951Z" fill="black"/>
</svg>
