<svg width="20" height="20" viewBox="0 0 20 20" fill="none" xmlns="http://www.w3.org/2000/svg">
<path fill-rule="evenodd" clip-rule="evenodd" d="M18 10C18 14.4183 14.4183 18 10 18C5.58172 18 2 14.4183 2 10C2 5.58172 5.58172 2 10 2C14.4183 2 18 5.58172 18 10ZM10 8.65C10.4142 8.65 10.75 8.98579 10.75 9.4V14C10.75 14.4142 10.4142 14.75 10 14.75C9.58579 14.75 9.25 14.4142 9.25 14V9.4C9.25 8.98579 9.58579 8.65 10 8.65ZM10 7.4C10.5523 7.4 11 6.95228 11 6.4C11 5.84772 10.5523 5.4 10 5.4C9.44772 5.4 9 5.84772 9 6.4C9 6.95228 9.44772 7.4 10 7.4Z" fill="black"/>
</svg>
