<svg width="20" height="20" viewBox="0 0 20 20" fill="none" xmlns="http://www.w3.org/2000/svg">
<path fill-rule="evenodd" clip-rule="evenodd" d="M10 18C14.4183 18 18 14.4183 18 10C18 5.58172 14.4183 2 10 2C5.58172 2 2 5.58172 2 10C2 14.4183 5.58172 18 10 18ZM14.3128 8.09578C14.5866 7.78497 14.5566 7.31104 14.2458 7.03723C13.935 6.76342 13.461 6.79342 13.1872 7.10422L9.02253 11.8317L6.75542 9.76383C6.44938 9.48469 5.97501 9.5065 5.69588 9.81253C5.41674 10.1186 5.43855 10.5929 5.74458 10.8721L8.57547 13.4541C8.72409 13.5897 8.92093 13.6599 9.12179 13.6489C9.32265 13.6379 9.51068 13.5467 9.64365 13.3958L14.3128 8.09578Z" fill="black"/>
</svg>
