<svg width="20" height="20" viewBox="0 0 20 20" fill="none" xmlns="http://www.w3.org/2000/svg">
<path fill-rule="evenodd" clip-rule="evenodd" d="M18 10C18 14.4183 14.4183 18 10 18C5.58172 18 2 14.4183 2 10C2 5.58172 5.58172 2 10 2C14.4183 2 18 5.58172 18 10ZM10 11.3498C10.4142 11.3498 10.75 11.0141 10.75 10.5998V5.99984C10.75 5.58562 10.4142 5.24984 10 5.24984C9.5858 5.24984 9.25001 5.58562 9.25001 5.99984V10.5998C9.25001 11.0141 9.5858 11.3498 10 11.3498ZM10 12.5998C10.5523 12.5998 11 13.0476 11 13.5998C11 14.1521 10.5523 14.5998 10 14.5998C9.44773 14.5998 9.00001 14.1521 9.00001 13.5998C9.00001 13.0476 9.44773 12.5998 10 12.5998Z" fill="black"/>
</svg>
