<svg width="24" height="24" viewBox="0 0 24 24" fill="none" xmlns="http://www.w3.org/2000/svg">
<path d="M9.48254 8.63172C9.31017 8.75984 9.23914 8.98245 9.31696 9.18263C9.58204 9.86448 10.2771 11.4409 11.4144 12.5783C12.552 13.7158 14.1342 14.4164 14.8184 14.6839C15.0191 14.7624 15.2425 14.6913 15.3709 14.5182L16.3167 13.2431C16.671 12.7654 17.3217 12.6193 17.8462 12.8997L20.4006 14.2651C21.1219 14.6506 21.4014 15.543 21.0289 16.2711L19.2599 19.7291C18.765 20.6964 17.7802 21.318 16.7087 21.1376C14.6551 20.7918 11.0964 19.7033 7.69287 16.2998C4.28993 12.8969 3.20298 9.34343 2.85816 7.29284C2.67815 6.22234 3.29937 5.23874 4.26569 4.74417L7.72883 2.97166C8.457 2.59897 9.34951 2.87841 9.73512 3.59982L11.1008 6.15467C11.3809 6.67877 11.2353 7.32896 10.7583 7.68347L9.48254 8.63172Z" stroke="black" stroke-width="1.5" stroke-miterlimit="10" stroke-linecap="round"/>
</svg>
