<svg width="16" height="16" viewBox="0 0 16 16" fill="none" xmlns="http://www.w3.org/2000/svg">
<path fill-rule="evenodd" clip-rule="evenodd" d="M8 1.25C4.27208 1.25 1.25 4.27208 1.25 8C1.25 11.7279 4.27208 14.75 8 14.75C11.7279 14.75 14.75 11.7279 14.75 8C14.75 4.27208 11.7279 1.25 8 1.25ZM8 8.6499C8.41421 8.6499 8.75 8.31412 8.75 7.8999V4.7999C8.75 4.38569 8.41421 4.0499 8 4.0499C7.58579 4.0499 7.25 4.38569 7.25 4.7999V7.8999C7.25 8.31412 7.58579 8.6499 8 8.6499ZM8 9.8999C8.55228 9.8999 9 10.3476 9 10.8999C9 11.4522 8.55228 11.8999 8 11.8999C7.44772 11.8999 7 11.4522 7 10.8999C7 10.3476 7.44772 9.8999 8 9.8999Z" fill="black"/>
</svg>
