<svg width="24" height="24" viewBox="0 0 24 24" fill="none" xmlns="http://www.w3.org/2000/svg">
<path fill-rule="evenodd" clip-rule="evenodd" d="M12 21.5C17.2467 21.5 21.5 17.2467 21.5 12C21.5 6.75329 17.2467 2.5 12 2.5C6.75329 2.5 2.5 6.75329 2.5 12C2.5 17.2467 6.75329 21.5 12 21.5ZM17.0643 9.594C17.3371 9.28234 17.3057 8.80851 16.994 8.53567C16.6824 8.26283 16.2085 8.29429 15.9357 8.60595L10.8385 14.4282L8.00714 11.8295C7.70198 11.5494 7.22754 11.5697 6.94746 11.8749C6.66737 12.18 6.68769 12.6545 6.99286 12.9346L10.3899 16.0525C10.5387 16.1891 10.7363 16.2599 10.938 16.2489C11.1396 16.2378 11.3283 16.146 11.4614 15.994L17.0643 9.594Z" fill="black"/>
</svg>
