<svg width="16" height="16" viewBox="0 0 16 16" fill="none" xmlns="http://www.w3.org/2000/svg">
<path fill-rule="evenodd" clip-rule="evenodd" d="M1.25 8C1.25 4.27208 4.27208 1.25 8 1.25C11.7279 1.25 14.75 4.27208 14.75 8C14.75 11.7279 11.7279 14.75 8 14.75C4.27208 14.75 1.25 11.7279 1.25 8ZM11.3198 6.78777C11.5891 6.4731 11.5524 5.99965 11.2377 5.73029C10.923 5.46093 10.4496 5.49766 10.1802 5.81233L7.26681 9.21584L5.7633 7.80451C5.4613 7.52102 4.98666 7.53603 4.70317 7.83803C4.41968 8.14003 4.43469 8.61467 4.7367 8.89816L6.81268 10.8469C6.96205 10.9871 7.16228 11.0601 7.36685 11.0489C7.57142 11.0378 7.76252 10.9434 7.89574 10.7878L11.3198 6.78777Z" fill="black"/>
</svg>
