<svg width="16" height="16" viewBox="0 0 16 16" fill="none" xmlns="http://www.w3.org/2000/svg">
<path fill-rule="evenodd" clip-rule="evenodd" d="M8 1.25C4.27208 1.25 1.25 4.27208 1.25 8C1.25 11.7279 4.27208 14.75 8 14.75C11.7279 14.75 14.75 11.7279 14.75 8C14.75 4.27208 11.7279 1.25 8 1.25ZM8 7.34998C8.41421 7.34998 8.75 7.68576 8.75 8.09998V11.2C8.75 11.6142 8.41421 11.95 8 11.95C7.58579 11.95 7.25 11.6142 7.25 11.2V8.09998C7.25 7.68576 7.58579 7.34998 8 7.34998ZM8 6.09997C8.55228 6.09997 9 5.65226 9 5.09998C9 4.54769 8.55228 4.09998 8 4.09998C7.44772 4.09998 7 4.54769 7 5.09998C7 5.65226 7.44772 6.09997 8 6.09997Z" fill="black"/>
</svg>
