<svg width="24" height="24" viewBox="0 0 24 24" fill="none" xmlns="http://www.w3.org/2000/svg">
<path fill-rule="evenodd" clip-rule="evenodd" d="M21.5 12C21.5 17.2467 17.2467 21.5 12 21.5C6.75329 21.5 2.5 17.2467 2.5 12C2.5 6.75329 6.75329 2.5 12 2.5C17.2467 2.5 21.5 6.75329 21.5 12ZM12 10.5C12.4142 10.5 12.75 10.8358 12.75 11.25V16.75C12.75 17.1642 12.4142 17.5 12 17.5C11.5858 17.5 11.25 17.1642 11.25 16.75V11.25C11.25 10.8358 11.5858 10.5 12 10.5ZM12 8.5C12.5523 8.5 13 8.05228 13 7.5C13 6.94772 12.5523 6.5 12 6.5C11.4477 6.5 11 6.94772 11 7.5C11 8.05228 11.4477 8.5 12 8.5Z" fill="black"/>
</svg>
