<svg width="20" height="20" viewBox="0 0 20 20" fill="none" xmlns="http://www.w3.org/2000/svg">
<path fill-rule="evenodd" clip-rule="evenodd" d="M18 10C18 14.4183 14.4183 18 10 18C5.58172 18 2 14.4183 2 10C2 5.58172 5.58172 2 10 2C14.4183 2 18 5.58172 18 10ZM5.5 10C5.5 9.58579 5.83579 9.25 6.25 9.25H9.25V6.25C9.25 5.83579 9.58579 5.5 10 5.5C10.4142 5.5 10.75 5.83579 10.75 6.25V9.25H13.75C14.1642 9.25 14.5 9.58579 14.5 10C14.5 10.4142 14.1642 10.75 13.75 10.75H10.75V13.75C10.75 14.1642 10.4142 14.5 10 14.5C9.58579 14.5 9.25 14.1642 9.25 13.75V10.75H6.25C5.83579 10.75 5.5 10.4142 5.5 10Z" fill="black"/>
</svg>
