<svg width="16" height="16" viewBox="0 0 16 16" fill="none" xmlns="http://www.w3.org/2000/svg">
<path d="M13.25 8C13.25 10.8995 10.8995 13.25 8 13.25V14.75C11.7279 14.75 14.75 11.7279 14.75 8H13.25ZM8 13.25C5.1005 13.25 2.75 10.8995 2.75 8H1.25C1.25 11.7279 4.27208 14.75 8 14.75V13.25ZM2.75 8C2.75 5.1005 5.1005 2.75 8 2.75V1.25C4.27208 1.25 1.25 4.27208 1.25 8H2.75ZM8 2.75C10.8995 2.75 13.25 5.1005 13.25 8H14.75C14.75 4.27208 11.7279 1.25 8 1.25V2.75Z" fill="black"/>
<path d="M5.25 8.35109L7.32598 10.2998L10.75 6.2998" stroke="black" stroke-width="1.5" stroke-linecap="round" stroke-linejoin="round"/>
</svg>
