<svg width="48" height="48" viewBox="0 0 48 48" fill="none" xmlns="http://www.w3.org/2000/svg">
<path d="M20 40H10C8.89543 40 8 39.1046 8 38V10C8 8.89543 8.89543 8 10 8H38C39.1046 8 40 8.89543 40 10V21.5" stroke="black" stroke-width="1.5" stroke-linecap="round"/>
<path d="M34.4393 24.0661C35.0247 23.4777 35.9765 23.4765 36.5634 24.0634L39.9366 27.4366C40.5235 28.0235 40.5223 28.9753 39.9339 29.5606L29.8799 39.5634C29.5988 39.843 29.2184 40 28.8219 40H25C24.4477 40 24 39.5523 24 39L24 35.1781C24 34.7816 24.157 34.4012 24.4366 34.1201L34.4393 24.0661Z" stroke="black" stroke-width="1.5"/>
<path d="M32.5703 26.2783L37.7218 31.4298" stroke="black" stroke-width="1.5"/>
<path d="M14 17H34" stroke="black" stroke-width="1.5" stroke-linecap="round"/>
<path d="M14 22H27" stroke="black" stroke-width="1.5" stroke-linecap="round"/>
<path d="M14 27H21" stroke="black" stroke-width="1.5" stroke-linecap="round"/>
</svg>
