<svg width="20" height="11" viewBox="0 0 20 11" fill="none" xmlns="http://www.w3.org/2000/svg">
<path d="M4.5 11C6.98528 11 9 8.53757 9 5.5C9 2.46243 6.98528 0 4.5 0C2.01472 0 0 2.46243 0 5.5C0 8.53757 2.01472 11 4.5 11Z" fill="white"/>
<path d="M15.5 11C17.9853 11 20 8.53757 20 5.5C20 2.46243 17.9853 0 15.5 0C13.0147 0 11 2.46243 11 5.5C11 8.53757 13.0147 11 15.5 11Z" fill="white"/>
<path d="M5.5 7C6.32843 7 7 6.32843 7 5.5C7 4.67157 6.32843 4 5.5 4C4.67157 4 4 4.67157 4 5.5C4 6.32843 4.67157 7 5.5 7Z" fill="black"/>
<path d="M14.5 7C15.3284 7 16 6.32843 16 5.5C16 4.67157 15.3284 4 14.5 4C13.6716 4 13 4.67157 13 5.5C13 6.32843 13.6716 7 14.5 7Z" fill="black"/>
</svg>
