<svg width="24" height="24" viewBox="0 0 24 24" fill="none" xmlns="http://www.w3.org/2000/svg">
<path d="M5.14794 6.20872C4.9722 6.03299 4.69316 6.01244 4.49898 6.16756C2.28393 7.93702 0.946486 10.1334 0.356889 11.2589C0.111506 11.7273 0.111506 12.2727 0.356889 12.7411C1.44093 14.8104 5.05309 20.5 11.9999 20.5C14.0524 20.5 15.8138 20.0033 17.3049 19.2501C17.5987 19.1016 17.6504 18.7112 17.4177 18.4784L15.2695 16.3303C15.0946 16.1554 14.8195 16.1371 14.6086 16.2663C13.8491 16.7317 12.9558 17 11.9999 17C9.23845 17 6.99988 14.7614 6.99988 12C6.99988 11.044 7.26816 10.1507 7.73353 9.39128C7.86276 9.18039 7.84446 8.90525 7.66957 8.73036L5.14794 6.20872Z" fill="black"/>
<path d="M9.49094 10.5517C9.26529 10.3261 8.88668 10.3674 8.76463 10.6623C8.59402 11.0744 8.49988 11.5262 8.49988 12C8.49988 13.933 10.0669 15.5 11.9999 15.5C12.4737 15.5 12.9255 15.4059 13.3376 15.2353C13.6325 15.1132 13.6738 14.7346 13.4482 14.5089L9.49094 10.5517Z" fill="black"/>
<path d="M15.2351 13.3377C15.1131 13.6326 14.7345 13.6739 14.5088 13.4483L10.5516 9.49106C10.3259 9.26541 10.3673 8.8868 10.6621 8.76475C11.0743 8.59414 11.5261 8.5 11.9999 8.5C13.9329 8.5 15.4999 10.067 15.4999 12C15.4999 12.4738 15.4057 12.9256 15.2351 13.3377Z" fill="black"/>
<path d="M16.3302 15.2696C16.1553 15.0948 16.137 14.8196 16.2662 14.6087C16.7316 13.8493 16.9999 12.956 16.9999 12C16.9999 9.23858 14.7613 7 11.9999 7C11.0439 7 10.1506 7.26828 9.39116 7.73365C9.18027 7.86288 8.90512 7.84459 8.73023 7.6697L6.5821 5.52156C6.34936 5.28882 6.40105 4.89835 6.69483 4.74994C8.18594 3.99669 9.94736 3.5 11.9999 3.5C18.9467 3.5 22.5588 9.18955 23.6429 11.2589C23.8882 11.7273 23.8883 12.2727 23.6429 12.7411C23.0533 13.8666 21.7158 16.063 19.5008 17.8324C19.3066 17.9876 19.0276 17.967 18.8518 17.7913L16.3302 15.2696Z" fill="black"/>
</svg>
