<svg width="24" height="24" viewBox="0 0 24 24" fill="none" xmlns="http://www.w3.org/2000/svg">
<path fill-rule="evenodd" clip-rule="evenodd" d="M11.9999 20.5C18.9467 20.5 22.5588 14.8104 23.6429 12.7411C23.8883 12.2727 23.8882 11.7273 23.6429 11.2589C22.5588 9.18955 18.9467 3.5 11.9999 3.5C5.05309 3.5 1.44093 9.18955 0.356889 11.2589C0.111506 11.7273 0.111506 12.2727 0.356889 12.7411C1.44093 14.8104 5.05309 20.5 11.9999 20.5ZM15.4999 12C15.4999 13.933 13.9329 15.5 11.9999 15.5C10.0669 15.5 8.49988 13.933 8.49988 12C8.49988 10.067 10.0669 8.5 11.9999 8.5C13.9329 8.5 15.4999 10.067 15.4999 12ZM16.9999 12C16.9999 14.7614 14.7613 17 11.9999 17C9.23845 17 6.99988 14.7614 6.99988 12C6.99988 9.23858 9.23845 7 11.9999 7C14.7613 7 16.9999 9.23858 16.9999 12Z" fill="black"/>
</svg>
