<svg width="24" height="24" viewBox="0 0 24 24" fill="none" xmlns="http://www.w3.org/2000/svg">
<path d="M12 7.5H9.75C8.50736 7.5 7.5 6.49264 7.5 5.25C7.5 4.00736 8.50736 3 9.75 3C10.9926 3 12 4.00736 12 5.25M12 7.5V5.25M12 7.5H14.25C15.4926 7.5 16.5 6.49264 16.5 5.25C16.5 4.00736 15.4926 3 14.25 3C13.0074 3 12 4.00736 12 5.25" stroke="black" stroke-width="1.5"/>
<path d="M19.25 19V11.5H4.75V19C4.75 19.8284 5.42157 20.5 6.25 20.5H17.75C18.5784 20.5 19.25 19.8284 19.25 19Z" stroke="black" stroke-width="1.5"/>
<path d="M14.5 11.5L14.5 20.5H9.5L9.5 11.5H14.5Z" stroke="black" stroke-width="1.5"/>
<path d="M20.75 10.5V8.5C20.75 7.94772 20.3023 7.5 19.75 7.5H4.25C3.69772 7.5 3.25 7.94772 3.25 8.5V10.5C3.25 11.0523 3.69772 11.5 4.25 11.5H19.75C20.3023 11.5 20.75 11.0523 20.75 10.5Z" stroke="black" stroke-width="1.5"/>
</svg>
