<svg width="24" height="24" viewBox="0 0 24 24" fill="none" xmlns="http://www.w3.org/2000/svg">
<path d="M11.25 13.75C11.25 13.4739 11.0261 13.25 10.75 13.25H4.5C4.22386 13.25 4.00001 13.4736 4.00001 13.7497L4 19.5C4 20.4665 4.7835 21.25 5.75 21.25H10.75C11.0261 21.25 11.25 21.0261 11.25 20.75L11.25 13.75Z" fill="black"/>
<path d="M12.75 20.75C12.75 21.0261 12.9739 21.25 13.25 21.25H18.25C19.2165 21.25 20 20.4665 20 19.5V13.7498C20 13.4736 19.7761 13.25 19.5 13.25H13.25C12.9739 13.25 12.75 13.4739 12.75 13.75V20.75Z" fill="black"/>
<path fill-rule="evenodd" clip-rule="evenodd" d="M9.5 1.5C7.567 1.5 6 3.067 6 5C6 5.6375 6.17044 6.2352 6.46824 6.75H4C3.17157 6.75 2.5 7.42157 2.5 8.25V10.25C2.5 11.0784 3.17157 11.75 4 11.75H20C20.8284 11.75 21.5 11.0784 21.5 10.25V8.25C21.5 7.42157 20.8284 6.75 20 6.75H17.5318C17.8296 6.2352 18 5.6375 18 5C18 3.067 16.433 1.5 14.5 1.5C13.5207 1.5 12.6353 1.90223 12 2.55051C11.3647 1.90223 10.4793 1.5 9.5 1.5ZM9.5 3.5C10.3284 3.5 11 4.17157 11 5V6.5H9.5C8.67157 6.5 8 5.82843 8 5C8 4.17157 8.67157 3.5 9.5 3.5ZM13 5V6.5H14.5C15.3284 6.5 16 5.82843 16 5C16 4.17157 15.3284 3.5 14.5 3.5C13.6716 3.5 13 4.17157 13 5Z" fill="black"/>
</svg>
