<svg width="16" height="16" viewBox="0 0 16 16" fill="none" xmlns="http://www.w3.org/2000/svg">
<g clip-path="url(#clip0_28166_57169)">
<path d="M9.00049 1.84792C9.00049 1.84792 11.0485 0.394582 12.2154 0.282048C12.2154 0.282048 13.0512 0.0713818 13.2016 0.967382C13.2016 0.967382 13.3322 1.81058 13.5632 2.42072C13.5632 2.42072 13.7365 2.87245 13.4128 3.04578H9.00049V1.84845V1.84792Z" fill="#7986FC"/>
<g style="mix-blend-mode:multiply" opacity="0.2">
<path d="M10.5408 3.04542H9.00049L9.17222 1.73022L10.5408 3.04542Z" fill="black"/>
</g>
<path d="M1.62562 6.47852H14.3824C14.6768 6.47852 14.9158 6.71745 14.9158 7.01185V14.5276C14.9158 15.1164 14.4379 15.5942 13.8491 15.5942H2.15895C1.57015 15.5942 1.09229 15.1164 1.09229 14.5276V7.01185C1.09229 6.71745 1.33122 6.47852 1.62562 6.47852Z" fill="#D0D4FE"/>
<path d="M14.3824 6.47852H1.62562C1.33122 6.47852 1.09229 6.71745 1.09229 7.01185V8.10465C1.09229 7.81025 1.33122 7.57132 1.62562 7.57132H14.3824C14.6768 7.57132 14.9158 7.81025 14.9158 8.10465V7.01185C14.9158 6.71745 14.6768 6.47852 14.3824 6.47852Z" fill="#BAC1FE"/>
<path d="M1.62575 3.04541H14.3745C14.9633 3.04541 15.4412 3.52328 15.4412 4.11208V5.94568C15.4412 6.24008 15.2023 6.47901 14.9079 6.47901H1.09242C0.798015 6.47901 0.559082 6.24008 0.559082 5.94568V4.11208C0.559082 3.52328 1.03695 3.04541 1.62575 3.04541Z" fill="#D0D4FE"/>
<path d="M6.76123 6.47852H9.2103V15.3665C9.2103 15.5724 9.04283 15.7398 8.83696 15.7398H7.13456C6.9287 15.7398 6.76123 15.5724 6.76123 15.3665V6.47852Z" fill="#7986FC"/>
<path d="M6.99969 1.84792C6.99969 1.84792 4.95169 0.394582 3.78422 0.282048C3.78422 0.282048 2.94849 0.0713818 2.79809 0.967382C2.79809 0.967382 2.66742 1.81058 2.43649 2.42072C2.43649 2.42072 2.26315 2.87245 2.58689 3.04578H6.99915V1.84845L6.99969 1.84792Z" fill="#7986FC"/>
<g style="mix-blend-mode:multiply" opacity="0.2">
<path d="M5.45898 3.04542H6.99925L6.82752 1.73022L5.45898 3.04542Z" fill="black"/>
</g>
<g style="mix-blend-mode:multiply" opacity="0.2">
<path d="M9.2103 6.47852H6.76123V7.57132H9.2103V6.47852Z" fill="black"/>
</g>
<path d="M9.02087 2.8645H6.99687C6.79068 2.8645 6.62354 3.03165 6.62354 3.23784V6.28584C6.62354 6.49202 6.79068 6.65917 6.99687 6.65917H9.02087C9.22705 6.65917 9.3942 6.49202 9.3942 6.28584V3.23784C9.3942 3.03165 9.22705 2.8645 9.02087 2.8645Z" fill="#7986FC"/>
<path d="M7.41539 1.34351H8.58446C8.93752 1.34351 9.22446 1.63044 9.22446 1.98351V2.65124C9.22446 2.76911 9.12899 2.86457 9.01112 2.86457H6.98872C6.87086 2.86457 6.77539 2.76911 6.77539 2.65124V1.98351C6.77539 1.63044 7.06232 1.34351 7.41539 1.34351Z" fill="#7986FC"/>
</g>
<defs>
<clipPath id="clip0_28166_57169">
<rect width="16" height="16" fill="white"/>
</clipPath>
</defs>
</svg>
