<svg width="24" height="24" viewBox="0 0 24 24" fill="none" xmlns="http://www.w3.org/2000/svg">
<path d="M20.25 16.6406V12C20.25 7.44365 16.5563 3.75 12 3.75C7.44365 3.75 3.75 7.44365 3.75 12V16.6406" stroke="black" stroke-width="1.5"/>
<path d="M16.5 20.25H17.25C18.9069 20.25 20.25 18.9069 20.25 17.25V15.25C20.25 13.5931 18.9069 12.25 17.25 12.25H16.5C15.6716 12.25 15 12.9216 15 13.75V18.75C15 19.5784 15.6716 20.25 16.5 20.25Z" stroke="black" stroke-width="1.5"/>
<path d="M7.5 20.25H6.75C5.09315 20.25 3.75 18.9069 3.75 17.25V15.25C3.75 13.5931 5.09315 12.25 6.75 12.25H7.5C8.32843 12.25 9 12.9216 9 13.75V18.75C9 19.5784 8.32843 20.25 7.5 20.25Z" stroke="black" stroke-width="1.5"/>
</svg>
