<svg width="49" height="20" viewBox="0 0 49 20" fill="none" xmlns="http://www.w3.org/2000/svg">
<path d="M12.2284 4.5C15.6683 4.5 18.4567 6.70352 18.4567 9.4208C18.4567 12.1381 15.6683 14.3407 12.2284 14.3407C11.9644 14.3407 11.7048 14.3265 11.4497 14.3007L8.26841 16.4482C8.04352 16.6002 7.7502 16.3913 7.82042 16.1282L8.55374 13.3896C7.00621 12.4945 6 11.051 6 9.4208C6 6.70352 8.7884 4.5 12.2284 4.5Z" fill="black"/>
<path d="M23.9749 13.9162V17.2646H21.5723V4.84611H23.2674L23.5633 5.63632C24.0736 5.12611 24.8478 4.58301 26.0984 4.58301C28.4522 4.58301 29.5713 6.34387 29.5553 9.19181C29.5553 12.1713 27.8273 14.0806 25.3571 14.0806C24.8798 14.0806 24.518 14.0468 23.9749 13.9162ZM23.9749 6.85497V12.2371C24.1065 12.254 24.4362 12.286 24.7482 12.286C26.4602 12.286 27.1188 11.0842 27.1188 9.19181C27.1188 7.52962 26.6735 6.5252 25.3082 6.5252C24.8638 6.5252 24.3704 6.65675 23.9749 6.85408" fill="black"/>
<path d="M34.7528 8.26971H36.119V7.97372C36.119 6.98529 35.559 6.52485 34.5875 6.52485C33.8471 6.52485 32.8924 6.73907 32.1191 7.11773L31.4604 5.50443C32.3164 4.91244 33.6337 4.5 34.8017 4.5C37.1066 4.5 38.3581 5.71776 38.3581 8.0386V13.7514H36.6621L36.415 12.9941C35.4444 13.7016 34.5555 13.9985 33.7484 13.9985C31.9875 13.9985 31 12.9452 31 11.1674C31 9.27414 32.3173 8.2706 34.7528 8.2706M36.119 11.4474V9.80213H35.0159C33.7813 9.80213 33.1555 10.2466 33.1555 11.1354C33.1555 11.8101 33.5013 12.1399 34.2088 12.1399C34.8675 12.1399 35.7066 11.8101 36.1181 11.4483" fill="black"/>
<path d="M45.1853 13.0598C44.3453 15.2989 43.3417 16.9282 41.876 17.8331L40.3951 16.4669C41.2511 15.7265 41.86 15.002 42.3862 14.0314L39.1934 5.32309L41.58 4.68133L43.6208 11.7425L45.6466 4.64844L48.0003 5.30709L45.1853 13.0598Z" fill="black"/>
</svg>
