<svg width="140" height="26" viewBox="0 0 140 26" fill="none" xmlns="http://www.w3.org/2000/svg">
<g clip-path="url(#clip0_13622_24638)">
<path d="M68.2727 12.3674V19.6793H65.4389V12.3674C65.4389 10.1861 64.222 8.41768 61.4892 8.41768C58.7565 8.41768 57.5395 10.1861 57.5395 12.3674V19.6793H54.7057V12.3674C54.7057 8.62123 57.1916 5.58388 61.4892 5.58388C65.7868 5.58388 68.2727 8.62123 68.2727 12.3674ZM81.5713 0.360902H84.4051V12.812C84.4051 16.8036 81.1685 20.0402 77.1769 20.0402C73.1853 20.0402 69.9488 16.8036 69.9488 12.812C69.9488 8.82045 73.1853 5.58388 77.1769 5.58388C79.006 5.58388 80.8235 6.48325 81.5713 7.69444V0.360902ZM81.5713 12.812C81.5713 10.3853 79.6036 8.41624 77.1769 8.41624C74.7502 8.41624 72.7826 10.3839 72.7826 12.812C72.7826 15.2402 74.7502 17.2064 77.1769 17.2064C79.6036 17.2064 81.5713 15.2387 81.5713 12.812ZM122.884 17.2078C120.458 17.2078 118.489 15.2387 118.489 12.812C118.489 10.3853 120.456 8.41624 122.883 8.41624C124.487 8.41624 125.669 9.14815 126.504 10.329L128.698 8.51874C127.381 6.73877 125.268 5.58388 122.883 5.58388C118.891 5.58388 115.655 8.82045 115.655 12.812C115.655 16.8036 118.891 20.0402 122.883 20.0402C125.557 20.0402 127.682 18.5879 128.933 16.4312L126.849 14.8028C126.02 16.2204 124.786 17.2078 122.884 17.2078ZM113.601 9.32138C114.623 11.3612 114.247 14.029 114.247 14.029H103.171C103.452 15.9403 105.386 17.2049 107.39 17.2049C109.137 17.2049 110.508 16.6751 111.47 15.3167L113.427 16.782C112.135 18.7424 109.914 20.0373 107.39 20.0373C103.399 20.0373 100.162 17.0331 100.162 12.8091C100.162 8.58514 103.399 5.58099 107.39 5.58099C107.995 5.58099 108.601 5.65606 109.188 5.8062C111.188 6.31868 112.695 7.51832 113.601 9.32138ZM111.269 11.3626C110.874 9.25353 109.248 8.4148 107.392 8.4148C105.535 8.4148 103.767 9.37191 103.306 11.3626H111.269ZM99.8936 5.94334H97.5953C94.1552 5.94334 91.4701 8.24301 91.4701 12.0686C91.4701 12.0787 91.4701 19.6778 91.4701 19.6778H94.3025V12.0686C94.3025 9.94069 95.6176 8.77714 97.5939 8.77714H99.8921L99.8936 5.94334ZM136.163 16.8426C134.545 16.8426 132.912 15.4654 132.912 13.5006V8.77859H138.604V5.94478H132.912V1.35844H130.078V13.5945C130.078 17.1226 132.633 19.6793 136.163 19.6793H139.414V16.8455L136.163 16.8426ZM36.47 25.2632H33.6362V12.812C33.6362 8.82045 36.8728 5.58388 40.8644 5.58388C44.856 5.58388 48.0925 8.82045 48.0925 12.812C48.0925 16.8036 44.983 20.0402 40.9914 20.0402C39.1624 20.0402 37.2193 19.1408 36.47 17.9296V25.2632ZM36.47 12.812C36.47 15.2387 38.4377 17.2064 40.8644 17.2064C43.2911 17.2064 45.2587 15.2387 45.2587 12.812C45.2587 10.3853 43.2911 8.41624 40.8644 8.41624C38.4377 8.41624 36.47 10.3839 36.47 12.812ZM49.757 19.6793H52.5908V5.94623H49.757V19.6793ZM53.0427 1.88247C53.0427 2.92186 52.1996 3.76493 51.1602 3.76493C50.1208 3.76493 49.2777 2.92186 49.2777 1.88247C49.2777 0.843068 50.1208 0 51.1602 0C52.1996 0 53.0427 0.843068 53.0427 1.88247ZM86.5214 5.94623H89.3552V19.6793H86.5214V5.94623ZM87.9231 0C86.8838 0 86.0407 0.843068 86.0407 1.88247C86.0407 2.92186 86.8838 3.76493 87.9231 3.76493C88.9626 3.76493 89.8056 2.92186 89.8056 1.88247C89.8056 0.843068 88.9626 0 87.9231 0Z" fill="black"/>
<path d="M21.5633 3.69991C16.6305 -1.2329 8.63291 -1.2329 3.7001 3.69991C-1.23271 8.63273 -1.23271 16.6303 3.7001 21.5631C8.63291 26.4959 16.6305 26.4959 21.5633 21.5631C26.4961 16.6303 26.4961 8.63273 21.5633 3.69991Z" fill="black"/>
<path d="M15.304 7.30461L12.2031 10.404C12.0689 10.5383 11.8913 10.6134 11.708 10.622C11.5982 10.6264 11.4871 10.6076 11.3817 10.5628L8.52913 9.35021C8.43096 9.30834 8.32558 9.28813 8.22308 9.29102C8.03252 9.29391 7.84774 9.37042 7.70771 9.51045L4.6054 12.6128C3.12714 14.091 3.12714 16.4874 4.6054 17.9642C6.08365 19.4425 8.48004 19.4425 9.95685 17.9642L13.0592 14.8619C13.1949 14.7262 13.371 14.6511 13.5543 14.6439C13.664 14.6396 13.7752 14.6584 13.8806 14.7031L16.7317 15.9172C16.8371 15.9619 16.9483 15.9807 17.058 15.9764C17.2399 15.9677 17.4189 15.8926 17.5531 15.7584L20.6554 12.6561C22.1337 11.1778 22.1337 8.78143 20.6554 7.30461C19.1772 5.82636 16.7808 5.82636 15.304 7.30461ZM19.2754 11.2702L16.173 14.374C16.0388 14.5082 15.8612 14.5833 15.6779 14.592C15.5682 14.5963 15.457 14.5775 15.3516 14.5328L12.4991 13.3201C12.4139 13.284 12.3244 13.2638 12.2334 13.2609C12.0299 13.2537 11.8278 13.3302 11.6776 13.4789L8.57388 16.5812C7.85929 17.2901 6.70585 17.2886 5.9927 16.5755C5.27956 15.8623 5.27812 14.7089 5.98693 13.9943L9.08925 10.892C9.23361 10.7476 9.42416 10.6726 9.61905 10.6726C9.71722 10.6726 9.81682 10.6913 9.91066 10.7317L12.7618 11.9458C12.8831 11.9978 13.0144 12.0151 13.14 12.0007C13.3046 11.9819 13.4605 11.9083 13.5832 11.787L16.6855 8.6847C17.4001 7.97589 18.5535 7.97734 19.2667 8.69048C19.9798 9.40362 19.9842 10.5556 19.2754 11.2702Z" fill="white"/>
</g>
<defs>
<clipPath id="clip0_13622_24638">
<rect width="139.477" height="25.2632" fill="white"/>
</clipPath>
</defs>
</svg>
