<svg width="127" height="24" viewBox="0 0 127 24" fill="none" xmlns="http://www.w3.org/2000/svg">
<path d="M19.5453 20.7653H15.2076L17.2378 4.23474H21.5754L19.5453 20.7653Z" fill="black"/>
<path d="M60.038 20.7653H55.7004L57.7305 4.23474H62.0681L60.038 20.7653Z" fill="black"/>
<path d="M102.302 7.792C100.006 7.792 98.5006 9.53864 98.1379 12.4985C97.7569 15.6046 98.8878 17.1928 101.125 17.2049C102.805 17.1928 103.966 16.3027 104.387 14.8273L108.791 14.873C108.203 17.7049 105.332 20.997 100.567 20.997C96.0316 20.997 92.9986 17.9822 93.66 12.4985C94.3459 6.99337 98.208 4 102.652 4C106.777 4 109.474 6.30751 109.34 10.3739H104.929C104.975 8.82231 104.061 7.792 102.302 7.792Z" fill="black"/>
<path d="M34.2835 4.23474L33.1434 13.5227L28.7265 4.23474H24.3919L22.3618 20.7653H26.6964L27.8364 11.4773L32.2533 20.7653H36.5879L38.615 4.23474H34.2835Z" fill="black"/>
<path d="M77.3398 9.82825C77.7696 6.33497 75.6084 4.23474 71.9079 4.23474H64.8756L62.8455 20.7653H67.1831L67.8598 15.2754L69.5607 15.2633L72.3895 20.7653H77.1142L73.9258 14.5683C75.8126 13.7208 77.0594 12.1114 77.3398 9.82825ZM72.7949 9.82825C72.6303 11.267 71.6 11.8614 69.9661 11.8614H68.2774L68.7865 7.70668H70.4752C72.109 7.71582 72.9869 8.36815 72.7949 9.82825Z" fill="black"/>
<path d="M126.791 4.23474H111.065L110.633 7.7524H116.433L114.836 20.7653H119.128L120.728 7.74935L126.358 7.7524L126.791 4.23474Z" fill="black"/>
<path d="M92.1878 7.7524L92.6206 4.24389H84.9909L84.9939 4.23474H80.6593L78.6262 20.7866H82.7535H90.5874L91.0203 17.2781H83.3906L83.7624 14.2543H91.3922L91.825 10.7458H84.1922L84.5611 7.7524H92.1878Z" fill="black"/>
<path d="M9.05935 4.23474H2.03012L0 20.7653H4.33764L4.59064 18.7108L1.40524 15.7906H1.41133L7.50475 15.7875C11.2693 15.7997 14.031 13.5745 14.4669 10.0355C14.8967 6.5514 12.7599 4.23474 9.05935 4.23474ZM9.92505 10.0355C9.7574 11.4865 8.68747 12.3979 7.05361 12.4101H5.36489L5.94101 7.70668H7.62973C9.26053 7.71582 10.111 8.59676 9.92505 10.0355Z" fill="black"/>
<path d="M47.6957 4.23474H41.4621L39.4319 20.7653H45.7113C50.7561 20.7653 54.3104 17.6592 54.9444 12.5016C55.5784 7.3287 52.7863 4.23474 47.6957 4.23474ZM50.561 12.4985C50.1343 15.9796 48.5523 17.0648 46.0039 17.0648H44.2238L44.9858 10.8464L41.8004 7.93225H47.0099C49.671 7.93225 50.9878 9.00828 50.561 12.4985Z" fill="black"/>
</svg>
