<svg width="16" height="16" viewBox="0 0 16 16" fill="none" xmlns="http://www.w3.org/2000/svg">
<path d="M7.59201 1.36685C7.96617 0.972998 8.48559 0.75 9.02884 0.75C10 0.75 10.5 2 9.84922 3.51524L9.3178 4.75005H13.2192C14.3577 4.75005 15.1931 5.81998 14.917 6.92449L13.5117 12.5457C13.2612 13.5473 12.3613 14.25 11.3288 14.25L5 14.2501C4.72386 14.2501 4.5 14.0262 4.5 13.7501V4.94407C4.5 4.81923 4.5467 4.6989 4.63092 4.60675L7.59201 1.36685Z" fill="black"/>
<path fill-rule="evenodd" clip-rule="evenodd" d="M1.25 6C1.25 5.30964 1.80964 4.75 2.5 4.75H2.7C2.86569 4.75 3 4.88431 3 5.05V13.95C3 14.1157 2.86566 14.25 2.69996 14.25L2.5 14.25C1.80966 14.25 1.25 13.6903 1.25 13V6Z" fill="black"/>
</svg>
