<svg width="118" height="28" viewBox="0 0 118 28" fill="none" xmlns="http://www.w3.org/2000/svg">
<path d="M38.3888 13.7072V21.8112H35.248V13.7072C35.248 11.2896 33.8992 9.3296 30.8704 9.3296C27.8416 9.3296 26.4928 11.2896 26.4928 13.7072V21.8112H23.352V13.7072C23.352 9.5552 26.1072 6.1888 30.8704 6.1888C35.6336 6.1888 38.3888 9.5552 38.3888 13.7072ZM53.128 0.4H56.2688V14.2C56.2688 18.624 52.6816 22.2112 48.2576 22.2112C43.8336 22.2112 40.2464 18.624 40.2464 14.2C40.2464 9.776 43.8336 6.1888 48.2576 6.1888C50.2848 6.1888 52.2992 7.1856 53.128 8.528V0.4ZM53.128 14.2C53.128 11.5104 50.9472 9.328 48.2576 9.328C45.568 9.328 43.3872 11.5088 43.3872 14.2C43.3872 16.8912 45.568 19.0704 48.2576 19.0704C50.9472 19.0704 53.128 16.8896 53.128 14.2ZM98.9168 19.072C96.2272 19.072 94.0448 16.8896 94.0448 14.2C94.0448 11.5104 96.2256 9.328 98.9152 9.328C100.693 9.328 102.003 10.1392 102.928 11.448L105.36 9.4416C103.901 7.4688 101.558 6.1888 98.9152 6.1888C94.4912 6.1888 90.904 9.776 90.904 14.2C90.904 18.624 94.4912 22.2112 98.9152 22.2112C101.878 22.2112 104.234 20.6016 105.621 18.2112L103.31 16.4064C102.392 17.9776 101.024 19.072 98.9168 19.072ZM88.6272 10.3312C89.76 12.592 89.344 15.5488 89.344 15.5488H77.0672C77.3792 17.6672 79.5232 19.0688 81.744 19.0688C83.68 19.0688 85.2 18.4816 86.2656 16.976L88.4352 18.6C87.0032 20.7728 84.5408 22.208 81.744 22.208C77.32 22.208 73.7328 18.8784 73.7328 14.1968C73.7328 9.5152 77.32 6.1856 81.744 6.1856C82.4144 6.1856 83.0864 6.2688 83.736 6.4352C85.9536 7.0032 87.624 8.3328 88.6272 10.3312ZM86.0432 12.5936C85.6048 10.256 83.8032 9.3264 81.7456 9.3264C79.688 9.3264 77.728 10.3872 77.2176 12.5936H86.0432ZM73.4352 6.5872H70.888C67.0752 6.5872 64.0992 9.136 64.0992 13.376C64.0992 13.3872 64.0992 21.8096 64.0992 21.8096H67.2384V13.376C67.2384 11.0176 68.696 9.728 70.8864 9.728H73.4336L73.4352 6.5872ZM113.634 18.6672C111.84 18.6672 110.03 17.1408 110.03 14.9632V9.7296H116.339V6.5888H110.03V1.5056H106.89V15.0672C106.89 18.9776 109.722 21.8112 113.634 21.8112H117.237V18.6704L113.634 18.6672ZM3.1408 28H0V14.2C0 9.776 3.5872 6.1888 8.0112 6.1888C12.4352 6.1888 16.0224 9.776 16.0224 14.2C16.0224 18.624 12.576 22.2112 8.152 22.2112C6.1248 22.2112 3.9712 21.2144 3.1408 19.872V28ZM3.1408 14.2C3.1408 16.8896 5.3216 19.0704 8.0112 19.0704C10.7008 19.0704 12.8816 16.8896 12.8816 14.2C12.8816 11.5104 10.7008 9.328 8.0112 9.328C5.3216 9.328 3.1408 11.5088 3.1408 14.2ZM17.8672 21.8112H21.008V6.5904H17.8672V21.8112ZM21.5088 2.0864C21.5088 3.2384 20.5744 4.1728 19.4224 4.1728C18.2704 4.1728 17.336 3.2384 17.336 2.0864C17.336 0.9344 18.2704 0 19.4224 0C20.5744 0 21.5088 0.9344 21.5088 2.0864ZM58.6144 6.5904H61.7552V21.8112H58.6144V6.5904ZM60.168 0C59.016 0 58.0816 0.9344 58.0816 2.0864C58.0816 3.2384 59.016 4.1728 60.168 4.1728C61.32 4.1728 62.2544 3.2384 62.2544 2.0864C62.2544 0.9344 61.32 0 60.168 0Z" fill="black"/>
</svg>
