<svg width="133" height="24" viewBox="0 0 133 24" fill="none" xmlns="http://www.w3.org/2000/svg">
<g clip-path="url(#clip0_11268_26216)">
<path d="M64.8592 11.749V18.6953H62.167V11.749C62.167 9.6768 61.0109 7.9968 58.4148 7.9968C55.8187 7.9968 54.6626 9.6768 54.6626 11.749V18.6953H51.9705V11.749C51.9705 8.19017 54.3321 5.30469 58.4148 5.30469C62.4976 5.30469 64.8592 8.19017 64.8592 11.749ZM77.4928 0.342857H80.1849V12.1714C80.1849 15.9634 77.1101 19.0382 73.3181 19.0382C69.5261 19.0382 66.4514 15.9634 66.4514 12.1714C66.4514 8.37943 69.5261 5.30469 73.3181 5.30469C75.0557 5.30469 76.7824 6.15909 77.4928 7.30971V0.342857ZM77.4928 12.1714C77.4928 9.86606 75.6235 7.99543 73.3181 7.99543C71.0128 7.99543 69.1435 9.86469 69.1435 12.1714C69.1435 14.4782 71.0128 16.3461 73.3181 16.3461C75.6235 16.3461 77.4928 14.4768 77.4928 12.1714ZM116.74 16.3474C114.435 16.3474 112.564 14.4768 112.564 12.1714C112.564 9.86606 114.434 7.99543 116.739 7.99543C118.263 7.99543 119.386 8.69074 120.178 9.81257L122.263 8.0928C121.012 6.40183 119.005 5.30469 116.739 5.30469C112.947 5.30469 109.872 8.37943 109.872 12.1714C109.872 15.9634 112.947 19.0382 116.739 19.0382C119.279 19.0382 121.298 17.6585 122.487 15.6096L120.506 14.0626C119.719 15.4094 118.546 16.3474 116.74 16.3474ZM107.921 8.85531C108.892 10.7931 108.535 13.3275 108.535 13.3275H98.0121C98.2795 15.1433 100.117 16.3447 102.021 16.3447C103.68 16.3447 104.983 15.8414 105.896 14.5509L107.756 15.9429C106.529 17.8053 104.418 19.0354 102.021 19.0354C98.2288 19.0354 95.154 16.1815 95.154 12.1687C95.154 8.15589 98.2288 5.30194 102.021 5.30194C102.595 5.30194 103.171 5.37326 103.728 5.51589C105.629 6.00274 107.061 7.1424 107.921 8.85531ZM105.706 10.7945C105.33 8.79086 103.786 7.99406 102.022 7.99406C100.258 7.99406 98.5785 8.90331 98.141 10.7945H105.706ZM94.8989 5.64617H92.7156C89.4475 5.64617 86.8966 7.83086 86.8966 11.4651C86.8966 11.4747 86.8966 18.6939 86.8966 18.6939H89.5874V11.4651C89.5874 9.44366 90.8368 8.33829 92.7142 8.33829H94.8976L94.8989 5.64617ZM129.355 16.0005C127.817 16.0005 126.266 14.6921 126.266 12.8256V8.33966H131.674V5.64754H126.266V1.29051H123.574V12.9147C123.574 16.2665 126.002 18.6953 129.355 18.6953H132.443V16.0032L129.355 16.0005ZM34.6466 24H31.9545V12.1714C31.9545 8.37943 35.0292 5.30469 38.8212 5.30469C42.6132 5.30469 45.688 8.37943 45.688 12.1714C45.688 15.9634 42.7339 19.0382 38.9419 19.0382C37.2043 19.0382 35.3584 18.1838 34.6466 17.0331V24ZM34.6466 12.1714C34.6466 14.4768 36.5158 16.3461 38.8212 16.3461C41.1266 16.3461 42.9958 14.4768 42.9958 12.1714C42.9958 9.86606 41.1266 7.99543 38.8212 7.99543C36.5158 7.99543 34.6466 9.86469 34.6466 12.1714ZM47.2692 18.6953H49.9613V5.64891H47.2692V18.6953ZM50.3906 1.78834C50.3906 2.77577 49.5897 3.57669 48.6022 3.57669C47.6148 3.57669 46.8139 2.77577 46.8139 1.78834C46.8139 0.800914 47.6148 0 48.6022 0C49.5897 0 50.3906 0.800914 50.3906 1.78834ZM82.1954 5.64891H84.8875V18.6953H82.1954V5.64891ZM83.527 0C82.5396 0 81.7387 0.800914 81.7387 1.78834C81.7387 2.77577 82.5396 3.57669 83.527 3.57669C84.5145 3.57669 85.3154 2.77577 85.3154 1.78834C85.3154 0.800914 84.5145 0 83.527 0Z" fill="black"/>
<path d="M20.4852 3.51499C15.799 -1.17118 8.20129 -1.17118 3.51512 3.51499C-1.17105 8.20117 -1.17105 15.7989 3.51512 20.4851C8.20129 25.1712 15.799 25.1712 20.4852 20.4851C25.1713 15.7989 25.1713 8.20117 20.4852 3.51499Z" fill="#3246FA"/>
<path d="M14.5388 6.93937L11.593 9.88382C11.4654 10.0114 11.2968 10.0827 11.1226 10.0909C11.0184 10.095 10.9128 10.0772 10.8126 10.0347L8.1027 8.88268C8.00944 8.84291 7.90933 8.82371 7.81196 8.82645C7.63093 8.82919 7.45539 8.90188 7.32236 9.03491L4.37516 11.9821C2.97081 13.3865 2.97081 15.663 4.37516 17.066C5.7795 18.4703 8.05607 18.4703 9.45904 17.066L12.4062 14.1188C12.5352 13.9899 12.7025 13.9186 12.8766 13.9117C12.9809 13.9076 13.0865 13.9254 13.1866 13.9679L15.8952 15.1213C15.9953 15.1638 16.1009 15.1817 16.2051 15.1775C16.3779 15.1693 16.548 15.098 16.6755 14.9705L19.6227 12.0233C21.027 10.6189 21.027 8.34234 19.6227 6.93937C18.2184 5.53502 15.9418 5.53502 14.5388 6.93937ZM18.3116 10.7067L15.3644 13.6553C15.2369 13.7828 15.0682 13.8541 14.894 13.8623C14.7898 13.8665 14.6842 13.8486 14.5841 13.8061L11.8741 12.6541C11.7932 12.6198 11.7082 12.6006 11.6218 12.5979C11.4284 12.591 11.2364 12.6637 11.0938 12.805L8.14521 15.7522C7.46636 16.4255 6.37058 16.4242 5.6931 15.7467C5.01561 15.0692 5.01424 13.9734 5.68761 13.2946L8.63481 10.3474C8.77196 10.2102 8.95298 10.1389 9.13813 10.1389C9.23138 10.1389 9.32601 10.1567 9.41516 10.1951L12.1237 11.3485C12.2389 11.3979 12.3637 11.4143 12.483 11.4006C12.6394 11.3828 12.7875 11.3129 12.9041 11.1977L15.8513 8.25045C16.5301 7.57708 17.6259 7.57845 18.3034 8.25594C18.9809 8.93342 18.985 10.0278 18.3116 10.7067Z" fill="white"/>
</g>
<defs>
<clipPath id="clip0_11268_26216">
<rect width="132.503" height="24" fill="white"/>
</clipPath>
</defs>
</svg>
