<svg width="16" height="16" viewBox="0 0 16 16" fill="none" xmlns="http://www.w3.org/2000/svg">
<path d="M4.7002 13.5V6.29855C4.7002 5.78586 4.89708 5.29275 5.25019 4.92105L8.13586 1.8835C8.36848 1.63864 8.69141 1.5 9.02915 1.5C9.91436 1.5 10.5108 2.40565 10.1611 3.21886L9.24017 5.3605C9.21179 5.4265 9.26019 5.5 9.33204 5.5H13.2194C13.87 5.5 14.3473 6.11139 14.1895 6.74254L12.7842 12.3638C12.6173 13.0316 12.0173 13.5 11.329 13.5H4.7002Z" stroke="black" stroke-width="1.5"/>
<path d="M2 6C2 5.72386 2.22386 5.5 2.5 5.5L4.7 5.5V13.5H2.5C2.22386 13.5 2 13.2761 2 13V6Z" stroke="black" stroke-width="1.5"/>
</svg>
