<svg width="24" height="24" viewBox="0 0 24 24" fill="none" xmlns="http://www.w3.org/2000/svg">
<path fill-rule="evenodd" clip-rule="evenodd" d="M3.01796 6.6049L12.0805 13.0184L20.9927 6.71136C20.8965 5.47405 19.862 4.5 18.6 4.5H5.4C4.17443 4.5 3.16341 5.41863 3.01796 6.6049ZM15.488 12.4446L12.5138 14.5494C12.2542 14.7331 11.9069 14.7331 11.6473 14.5494L8.58913 12.3852L3 16.6845V17.1C3 18.4255 4.07452 19.5 5.4 19.5H18.6C19.9255 19.5 21 18.4255 21 17.1V16.6845L15.488 12.4446ZM16.7694 11.5378L21 14.7921V8.54381L16.7694 11.5378ZM3 8.42981L7.30778 11.4784L3 14.792V8.42981Z" fill="black"/>
</svg>
