<svg width="24" height="24" viewBox="0 0 24 24" fill="none" xmlns="http://www.w3.org/2000/svg">
<path d="M4 7.49956C4 6.67113 4.67157 5.99956 5.5 5.99956H10.6218C10.8701 5.99956 11.1144 5.93795 11.333 5.82026L15.2889 3.69017C16.2882 3.15206 17.5 3.87587 17.5 5.01088V15.9882C17.5 17.1232 16.2882 17.847 15.2888 17.3089L11.333 15.1788C11.1144 15.0612 10.8701 14.9996 10.6218 14.9996H5.5C4.67157 14.9996 4 14.328 4 13.4996L4 7.49956Z" stroke="black" stroke-width="1.5"/>
<path d="M21.5 10.5C21.5 8.567 19.933 7 18 7H17.5V14H18C19.933 14 21.5 12.433 21.5 10.5Z" stroke="black" stroke-width="1.5" stroke-linejoin="round"/>
<path d="M7 15V19.5C7 20.0523 7.44772 20.5 8 20.5H9.75597C10.1976 20.5 10.5869 20.2103 10.7138 19.7873L12 15.5" stroke="black" stroke-width="1.5"/>
</svg>
