<svg width="24" height="24" viewBox="0 0 24 24" fill="none" xmlns="http://www.w3.org/2000/svg">
<path fill-rule="evenodd" clip-rule="evenodd" d="M5.5 3.5C4.25736 3.5 3.25 4.50736 3.25 5.75V6.54884C3.25 6.65779 3.30907 6.75818 3.40431 6.81109L4.36423 7.34438L4.3677 7.34631L11.7549 11.5016C11.9071 11.5872 12.0929 11.5872 12.2451 11.5016L19.6279 7.34882L19.6323 7.34632L20.5988 6.794C20.6923 6.74059 20.75 6.64119 20.75 6.53353V5.75C20.75 4.50736 19.7426 3.5 18.5 3.5H5.5ZM20.75 8.60756C20.75 8.53078 20.6671 8.48264 20.6004 8.52074L20.3721 8.65118L20.3677 8.6537L12.3677 13.1537C12.1394 13.2821 11.8606 13.2821 11.6323 13.1537L3.63577 8.65562L3.63402 8.65464L3.39856 8.52384C3.33191 8.48681 3.25 8.53501 3.25 8.61125V18.25C3.25 19.4926 4.25736 20.5 5.5 20.5H18.5C19.7426 20.5 20.75 19.4926 20.75 18.25V8.60756Z" fill="black"/>
</svg>
