<svg width="16" height="16" viewBox="0 0 16 16" fill="none" xmlns="http://www.w3.org/2000/svg">
<path d="M2 9.67358V12C2 13.1046 4.68629 14 8 14C11.3137 14 14 13.1046 14 12V9.67358C13.5941 9.95898 13.0933 10.1847 12.5589 10.3629C11.3462 10.7671 9.73443 11 8 11C6.26557 11 4.65384 10.7671 3.44113 10.3629C2.90672 10.1847 2.40591 9.95898 2 9.67358Z" fill="black"/>
<path d="M14 4C14 5.10457 11.3137 6 8 6C4.68629 6 2 5.10457 2 4C2 2.89543 4.68629 2 8 2C11.3137 2 14 2.89543 14 4Z" fill="black"/>
<path d="M8 7C11.3137 7 14 6.10457 14 5V8C14 9.10457 11.3137 10 8 10C4.68629 10 2 9.10457 2 8V5C2 6.10457 4.68629 7 8 7Z" fill="black"/>
</svg>
