<svg width="48" height="18" viewBox="0 0 48 18" fill="none" xmlns="http://www.w3.org/2000/svg">
<path d="M24.2558 3.85737H28.106C28.6419 3.84715 29.176 3.92163 29.6865 4.07778C30.0981 4.20605 30.4771 4.41501 30.7992 4.69125C31.0903 4.95068 31.3149 5.27057 31.4556 5.62615C31.602 6.00025 31.6751 6.39684 31.6712 6.79615V7.09554C31.6746 7.49853 31.5961 7.89833 31.4402 8.27288C31.2884 8.63592 31.0575 8.96401 30.7626 9.23533C30.443 9.52428 30.0651 9.74803 29.6518 9.89288C29.1582 10.0624 28.6363 10.1446 28.1117 10.1353H25.7323V14.1431H24.252L24.2558 3.85737ZM25.7362 5.08431V8.90839H27.8538C29.4092 8.90839 30.1863 8.29615 30.1851 7.07166V6.81451C30.1851 6.22431 29.9983 5.789 29.6249 5.5086C29.2514 5.22819 28.7156 5.08798 28.0174 5.08798L25.7362 5.08431Z" fill="#333333"/>
<path d="M35.4692 14.2567C34.6414 14.2567 33.9862 14.062 33.5037 13.6726C33.262 13.4742 33.0711 13.2258 32.9453 12.9464C32.8195 12.6669 32.7623 12.3637 32.7779 12.06V11.6742C32.7669 11.3712 32.8239 11.0694 32.9451 10.789C33.0663 10.5087 33.2489 10.2563 33.4806 10.0487C33.9477 9.62996 34.7056 9.42057 35.7541 9.42057H37.8312V8.96506C37.8312 8.44159 37.7003 8.04669 37.4347 7.80241C37.169 7.55812 36.7397 7.42404 36.1429 7.42404C35.7158 7.41524 35.2911 7.48767 34.8936 7.6371C34.5101 7.79597 34.1422 7.98714 33.7944 8.20833L33.0763 7.18159C33.4971 6.90365 33.9491 6.67139 34.4239 6.48914C34.976 6.28538 35.5645 6.18618 36.1564 6.1971C36.5816 6.19298 37.005 6.24805 37.4135 6.36057C37.7695 6.4598 38.1017 6.62453 38.3914 6.84547C38.6645 7.05776 38.8842 7.32576 39.0344 7.62975C39.1944 7.95798 39.274 8.31661 39.2674 8.67853V14.1428H37.8774V13.2024H37.8601C37.776 13.3486 37.6674 13.4808 37.5386 13.5936C37.4049 13.7121 37.2569 13.8151 37.0978 13.9004C36.8733 14.0161 36.6347 14.1049 36.3874 14.1649C36.0863 14.2305 35.778 14.2613 35.4692 14.2567ZM37.8312 10.5832H35.783C35.2144 10.5832 34.8082 10.6879 34.5644 10.8973C34.44 11.0078 34.3428 11.1431 34.2796 11.2936C34.2164 11.4441 34.1887 11.6061 34.1986 11.7679V11.9681C34.185 12.1289 34.2165 12.2902 34.2899 12.4355C34.3633 12.5808 34.476 12.7047 34.6164 12.7947C34.9174 12.9715 35.2659 13.0609 35.6193 13.0518C35.9352 13.0575 36.2502 13.0166 36.553 12.9306C36.8155 12.8495 37.0612 12.7252 37.2788 12.5632C37.4629 12.4371 37.6095 12.2675 37.7042 12.071C37.7971 11.8416 37.8403 11.5967 37.8312 11.351V10.5832Z" fill="#333333"/>
<path d="M44.3216 12.5745L46.4739 6.32959H48.0005L43.7537 17.3592L42.437 16.9165L43.4996 14.2478L40.5234 6.32959H42.0962L44.2639 12.5745H44.3216Z" fill="#333333"/>
<path d="M18.8658 0H0V18H18.8658V0Z" fill="#00C73C"/>
<path d="M10.9329 13.12L7.88933 8.85506V13.12H4.7168V4.88037H7.93361L10.9772 9.14527V4.88037H14.1497V13.12H10.9329Z" fill="white"/>
</svg>
