<svg width="16" height="16" viewBox="0 0 16 16" fill="none" xmlns="http://www.w3.org/2000/svg">
<path fill-rule="evenodd" clip-rule="evenodd" d="M11.6019 3.51433L11.3804 1.76975C11.3607 1.61528 11.3004 1.46879 11.2057 1.3452C11.111 1.22161 10.9852 1.12532 10.8411 1.06613C10.6971 1.00695 10.5399 0.986987 10.3856 1.00827C10.2313 1.02956 10.0853 1.09134 9.96264 1.18732L8.51983 2.323C8.36543 2.44101 8.1763 2.50461 7.98198 2.50386C7.78766 2.50311 7.59907 2.43805 7.44566 2.31885L5.99288 1.19812C5.86942 1.10283 5.7229 1.04196 5.56823 1.02171C5.41356 1.00146 5.25628 1.02256 5.11239 1.08285C4.9685 1.14314 4.84316 1.24048 4.74913 1.36494C4.65509 1.4894 4.59573 1.63655 4.57708 1.79139L4.35766 3.61461C4.33386 3.80965 4.24549 3.99116 4.10661 4.13023C3.96772 4.2693 3.78631 4.35795 3.59125 4.38206L1.77003 4.61376C1.6155 4.63338 1.46892 4.69362 1.34525 4.78833C1.22158 4.88305 1.12524 5.00885 1.06605 5.15291C1.00686 5.29698 0.986953 5.45414 1.00835 5.60838C1.02974 5.76262 1.09167 5.90841 1.18783 6.03089L2.32249 7.47329C2.44419 7.62757 2.51075 7.81815 2.51156 8.01467C2.51238 8.21119 2.4474 8.40235 2.32697 8.55772L1.20543 10.0105C1.11006 10.1339 1.04913 10.2804 1.02882 10.435C1.00851 10.5897 1.02956 10.7469 1.08982 10.8907C1.15009 11.0346 1.24741 11.1598 1.37188 11.2538C1.49634 11.3478 1.64351 11.4071 1.79839 11.4256L3.48792 11.6283L5.91091 9.2053L5.76016 8.50345H5V7.78861H5.60663L5.16878 5.75H6.28737L6.62891 7.78861H7.09277L7.50855 5.75H8.49145L8.63938 6.47683L11.6019 3.51433ZM7.62915 9.25482L8.25135 8.63263L8.6139 10.5421H9.80199L10.2398 8.50345H11V7.78861H10.3934L10.7484 6.13557L12.5125 4.37148L14.2022 4.57417C14.3571 4.59276 14.5043 4.65205 14.6288 4.74602C14.7532 4.83998 14.8505 4.96526 14.9108 5.10908C14.9711 5.2529 14.9921 5.41014 14.9718 5.56477C14.9515 5.7194 14.8906 5.86589 14.7952 5.98934L13.6737 7.44208C13.553 7.59758 13.4879 7.78894 13.4886 7.98569C13.4893 8.18244 13.5559 8.37327 13.6777 8.52778L14.8128 9.96892C14.9088 10.0915 14.9705 10.2374 14.9918 10.3917C15.013 10.5459 14.993 10.7031 14.9337 10.8471C14.8745 10.9912 14.7781 11.117 14.6545 11.2117C14.5308 11.3064 14.3843 11.3667 14.2297 11.3864L12.4081 11.6173C12.2133 11.6415 12.0321 11.7302 11.8934 11.8692C11.7547 12.0082 11.6664 12.1895 11.6426 12.3843L11.4232 14.2076C11.4045 14.3624 11.3451 14.5095 11.2511 14.634C11.1571 14.7585 11.0317 14.8558 10.8878 14.9161C10.744 14.9764 10.5867 14.9975 10.432 14.9772C10.2773 14.957 10.1308 14.8961 10.0074 14.8008L8.55457 13.6801C8.39894 13.5599 8.2076 13.4951 8.01092 13.4961C7.81424 13.497 7.62349 13.5636 7.46895 13.6853L6.03712 14.8129C5.91448 14.9087 5.76866 14.9704 5.61446 14.9917C5.46027 15.013 5.3032 14.9931 5.15922 14.934C5.01525 14.8749 4.88949 14.7788 4.79474 14.6554C4.7 14.532 4.63963 14.3856 4.61978 14.2313L4.39894 12.485L6.34192 10.5421H7.3861L7.62915 9.25482ZM9.42303 7.46095L9.36757 7.78861H9.09537L9.42303 7.46095ZM9.05186 8.50345L9.1401 8.93698H9.17319L9.24658 8.50345H9.05186Z" fill="black"/>
</svg>
