<?xml version="1.0" encoding="utf-8"?>
<!-- Generator: Adobe Illustrator 27.4.1, SVG Export Plug-In . SVG Version: 6.00 Build 0)  -->
<svg version="1.1" id="레이어_1" xmlns="http://www.w3.org/2000/svg" xmlns:xlink="http://www.w3.org/1999/xlink" x="0px"
	 y="0px" viewBox="0 0 28 28" style="enable-background:new 0 0 28 28;" xml:space="preserve">
<g>
	<path d="M10.4,4.5C10.4,4.5,10.4,4.5,10.4,4.5l0.9,0c0,0,0,0,0,0c0.2,0,0.3,0,0.4,0.1c0.1,0.1,0.3,0.2,0.3,0.3l5.2,7.1
		c0.1,0.1,0.2,0.2,0.2,0.2c0.1,0,0.2,0.1,0.3,0.1c0,0,0,0,0,0h3.6C23,12.3,24,13,24,14c0,1.1-1,1.8-2.5,1.8h-3.6
		c-0.1,0-0.2,0-0.3,0.1c-0.1,0-0.2,0.1-0.2,0.2l-5.2,7.1c-0.1,0.1-0.2,0.2-0.3,0.3c-0.1,0.1-0.3,0.1-0.4,0.1h-1c0,0,0,0,0,0
		c-0.1,0-0.2,0-0.3-0.1c-0.1-0.1-0.1-0.1-0.2-0.2c0-0.1,0-0.3,0-0.4l2.7-6.8c0,0,0-0.1,0-0.1s0-0.1,0-0.1c0,0,0-0.1-0.1-0.1
		c0,0-0.1,0-0.1,0l-4.6-0.5c0,0,0,0-0.1,0c-0.1,0-0.2,0-0.2,0c-0.1,0-0.2,0.1-0.2,0.2L5.5,18c-0.1,0.1-0.1,0.2-0.2,0.2
		c-0.1,0-0.2,0.1-0.3,0.1c0,0,0,0,0,0H4.7c0,0,0,0,0,0c-0.1,0-0.1,0-0.2,0c-0.1,0-0.1-0.1-0.1-0.1c0,0-0.1-0.1-0.1-0.2
		c0-0.1,0-0.1,0-0.2l0.8-2.6c0-0.1,0-0.1,0-0.2c0-0.1-0.1-0.1-0.1-0.1l-0.7-0.4c-0.1-0.1-0.2-0.1-0.2-0.2C4,14.1,4,14,4,13.9
		c0-0.1,0.1-0.1,0.1-0.2c0-0.1,0.1-0.1,0.2-0.1L5,13.2c0.1,0,0.1-0.1,0.1-0.1c0-0.1,0-0.1,0-0.2l-0.8-2.7c0-0.1,0-0.1,0-0.2
		c0-0.1,0-0.1,0.1-0.2c0,0,0.1-0.1,0.1-0.1c0,0,0.1,0,0.2,0c0,0,0,0,0,0H5c0,0,0,0,0,0c0.1,0,0.2,0,0.3,0.1c0.1,0,0.2,0.1,0.2,0.2
		l1.8,2.5c0.1,0.1,0.1,0.1,0.2,0.2c0.1,0,0.1,0,0.2,0c0,0,0,0,0,0l4.6-0.5c0,0,0.1,0,0.1,0c0,0,0.1,0,0.1-0.1c0,0,0-0.1,0-0.1
		s0-0.1,0-0.1L10,5.2c0-0.1,0-0.2,0-0.3s0.1-0.2,0.2-0.3C10.2,4.5,10.3,4.5,10.4,4.5 M10.4,3C10,3,9.5,3.1,9.2,3.4
		C8.9,3.7,8.6,4.1,8.5,4.5C8.4,4.9,8.4,5.3,8.6,5.7l2,5.3l-2.4,0.2L6.7,9.1C6.5,8.9,6.3,8.6,6,8.5C5.7,8.3,5.3,8.2,5,8.2H4.7
		c-0.3,0-0.5,0.1-0.8,0.2C3.7,8.5,3.4,8.7,3.3,8.9C3.1,9.1,2.9,9.4,2.9,9.7c-0.1,0.3-0.1,0.6,0,0.9l0.5,1.7
		c-0.2,0.1-0.3,0.3-0.4,0.4c-0.2,0.2-0.3,0.5-0.4,0.8c-0.1,0.4-0.1,0.9,0.1,1.3c0.2,0.3,0.4,0.6,0.7,0.9l-0.5,1.7
		c-0.1,0.3-0.1,0.6,0,0.9c0.1,0.3,0.2,0.6,0.4,0.8c0.2,0.2,0.4,0.4,0.7,0.5c0.2,0.1,0.5,0.2,0.8,0.2l0.3,0c0.3,0,0.7-0.1,1-0.2
		c0.3-0.2,0.6-0.4,0.8-0.7l1.4-2.1l2.4,0.2l-2,5.2c-0.2,0.5-0.2,1,0,1.5c0.2,0.4,0.4,0.7,0.7,0.9C9.6,24.9,10,25,10.4,25h1
		c0.4,0,0.8-0.1,1.1-0.3c0.3-0.2,0.6-0.4,0.9-0.7l5-6.8h3.2c2.3,0,4-1.3,4-3.3c0-0.8-0.3-1.5-0.9-2.1c-0.7-0.7-1.8-1.1-3.1-1.1h-3.2
		l-5-6.7c-0.2-0.3-0.5-0.6-0.9-0.7C12.1,3.1,11.7,3,11.3,3L10.4,3L10.4,3L10.4,3z"/>
</g>
</svg>
