<svg width="24" height="24" viewBox="0 0 24 24" fill="none" xmlns="http://www.w3.org/2000/svg">
<path d="M20.0195 10.2H15.9918L10.3074 3.22737C10.1931 3.08526 10.0122 3 9.82174 3H8.19353C7.99358 3 7.80314 3.10421 7.68888 3.26526C7.57462 3.43579 7.54606 3.64421 7.62223 3.83368L10.0407 10.2H6.10828L4.38485 8.30526C4.27059 8.16316 4.08968 8.07789 3.89925 8.07789H2.62334C2.41386 8.07789 2.22343 8.18211 2.10917 8.34316C1.99491 8.51368 1.96634 8.72211 2.04251 8.93053L3.3946 12.0284L2.04251 15.0884C1.96634 15.2779 1.99491 15.4958 2.10917 15.6568C2.22343 15.8274 2.41386 15.9221 2.62334 15.9221H3.89925C4.08016 15.9221 4.26107 15.8368 4.36581 15.7137L6.10828 13.8H10.0407L7.63175 20.1568C7.55558 20.3463 7.58414 20.5547 7.6984 20.7253C7.81266 20.8958 8.0031 21 8.21258 21H9.83127C10.0122 21 10.1931 20.9147 10.3074 20.7726L15.9918 13.8H20.0195C21.1145 13.8 22 12.9947 22 12C22 11.0053 21.1145 10.2 20.0195 10.2Z" fill="black"/>
</svg>
