<?xml version="1.0" encoding="utf-8"?>
<!-- Generator: Adobe Illustrator 27.9.0, SVG Export Plug-In . SVG Version: 6.00 Build 0)  -->
<svg version="1.1" id="레이어_1" xmlns="http://www.w3.org/2000/svg" xmlns:xlink="http://www.w3.org/1999/xlink" x="0px"
	 y="0px" viewBox="0 0 24 24" style="enable-background:new 0 0 24 24;" xml:space="preserve">
<g>
	<g>
		<path d="M8.78,3.6C8.78,3.6,8.79,3.6,8.78,3.6l0.82,0c0,0,0,0,0,0c0.14,0,0.27,0.03,0.39,0.09c0.12,0.06,0.23,0.15,0.31,0.26
			L15,10.2c0.06,0.08,0.14,0.14,0.22,0.19c0.09,0.04,0.18,0.07,0.28,0.07c0,0,0,0,0,0h3.28c1.3,0,2.21,0.64,2.21,1.55
			c0,0.94-0.87,1.55-2.21,1.55h-3.28c-0.1,0-0.19,0.02-0.28,0.07c-0.09,0.04-0.16,0.11-0.22,0.19l-4.7,6.25
			c-0.08,0.11-0.19,0.2-0.31,0.26C9.87,20.37,9.73,20.4,9.6,20.4H8.72c0,0,0,0,0,0c-0.09,0-0.18-0.03-0.25-0.08
			c-0.07-0.05-0.13-0.12-0.17-0.21c-0.04-0.11-0.04-0.24,0-0.35l2.39-6.01c0.01-0.03,0.02-0.06,0.01-0.09
			c0-0.03-0.01-0.06-0.03-0.08c-0.02-0.03-0.04-0.05-0.06-0.06c-0.02-0.02-0.05-0.03-0.08-0.03l-4.15-0.4c-0.02,0-0.03,0-0.05,0
			c-0.07,0-0.14,0.01-0.2,0.04C6.07,13.17,6,13.23,5.95,13.3l-1.59,2.24c-0.05,0.07-0.12,0.13-0.2,0.18
			c-0.08,0.04-0.17,0.06-0.26,0.06c0,0,0,0,0,0H3.62c0,0,0,0,0,0c-0.05,0-0.1-0.01-0.14-0.03c-0.05-0.02-0.09-0.05-0.12-0.09
			c-0.03-0.04-0.06-0.09-0.07-0.14c-0.01-0.05-0.01-0.11,0.01-0.16l0.68-2.34c0.02-0.05,0.01-0.11-0.01-0.16
			c-0.02-0.05-0.06-0.09-0.11-0.12l-0.63-0.34c-0.09-0.05-0.16-0.12-0.2-0.21C3,12.09,2.99,11.99,3.01,11.89
			c0.02-0.06,0.05-0.12,0.09-0.18c0.04-0.05,0.09-0.09,0.15-0.12l0.61-0.3c0.05-0.03,0.09-0.07,0.11-0.12
			c0.02-0.05,0.03-0.11,0.01-0.16L3.29,8.65C3.28,8.6,3.28,8.54,3.29,8.49c0.01-0.05,0.04-0.1,0.07-0.14
			c0.03-0.04,0.07-0.07,0.12-0.09c0.04-0.02,0.09-0.03,0.14-0.03c0,0,0,0,0,0H3.9c0,0,0,0,0,0c0.09,0,0.18,0.02,0.26,0.06
			c0.08,0.04,0.15,0.1,0.2,0.18l1.59,2.24c0.05,0.07,0.11,0.12,0.19,0.16c0.06,0.03,0.13,0.04,0.2,0.04c0.01,0,0.03,0,0.04,0
			l4.16-0.41c0.03,0,0.06-0.01,0.08-0.03c0.02-0.02,0.05-0.04,0.06-0.06c0.02-0.02,0.02-0.05,0.03-0.08c0-0.03,0-0.06-0.01-0.09
			L8.36,4.21C8.32,4.12,8.32,4.02,8.34,3.93C8.37,3.83,8.42,3.75,8.5,3.69C8.58,3.63,8.68,3.6,8.78,3.6 M8.78,2.1
			c-0.42,0-0.84,0.14-1.18,0.39C7.26,2.76,7.01,3.12,6.9,3.52c-0.11,0.4-0.09,0.84,0.06,1.23l1.72,4.42L6.83,9.36L5.59,7.6
			C5.39,7.33,5.14,7.11,4.84,6.96C4.55,6.81,4.22,6.73,3.9,6.73H3.63c-0.27,0-0.52,0.06-0.76,0.16C2.62,7,2.4,7.17,2.22,7.37
			c-0.2,0.24-0.34,0.51-0.4,0.81c-0.06,0.3-0.05,0.61,0.03,0.9l0.4,1.38c-0.12,0.09-0.23,0.2-0.33,0.32
			c-0.18,0.22-0.3,0.47-0.37,0.75c-0.1,0.43-0.06,0.87,0.11,1.26c0.13,0.29,0.34,0.55,0.59,0.75l-0.4,1.39
			c-0.08,0.26-0.1,0.57-0.04,0.87c0.06,0.3,0.19,0.58,0.39,0.81c0.19,0.22,0.41,0.39,0.66,0.5c0.24,0.11,0.5,0.16,0.76,0.16l0.28,0
			c0.33,0,0.66-0.08,0.95-0.23c0.29-0.15,0.55-0.37,0.74-0.64l1.24-1.76l1.83,0.18l-1.75,4.39c-0.19,0.45-0.19,0.97-0.01,1.44
			c0.16,0.39,0.41,0.7,0.73,0.91c0.32,0.22,0.7,0.33,1.09,0.33H9.6c0.37,0,0.73-0.09,1.06-0.25c0.33-0.16,0.62-0.4,0.84-0.69
			l4.44-5.91h2.85c2.19,0,3.71-1.25,3.71-3.05c0-0.74-0.29-1.45-0.83-1.99c-0.68-0.68-1.71-1.06-2.88-1.06h-2.85L11.5,3.05
			c-0.22-0.29-0.51-0.53-0.84-0.7C10.33,2.19,9.97,2.1,9.6,2.1L8.78,2.1L8.78,2.1L8.78,2.1z"/>
	</g>
</g>
</svg>
