<svg width="24" height="24" viewBox="0 0 24 24" fill="none" xmlns="http://www.w3.org/2000/svg">
<path d="M8.25 4.5H6.5C5.67157 4.5 5 5.17157 5 6V19.5C5 20.3284 5.67157 21 6.5 21H17.5C18.3284 21 19 20.3284 19 19.5V6C19 5.17157 18.3284 4.5 17.5 4.5H15.75" stroke="black" stroke-width="1.5"/>
<path d="M8.25 3.5C8.25 2.94772 8.69772 2.5 9.25 2.5H14.75C15.3023 2.5 15.75 2.94772 15.75 3.5V5.5C15.75 6.05228 15.3023 6.5 14.75 6.5H9.25C8.69772 6.5 8.25 6.05228 8.25 5.5L8.25 3.5Z" stroke="black" stroke-width="1.5"/>
<path d="M8.5 15.25H12.5" stroke="black" stroke-width="1.5" stroke-linecap="round"/>
<path d="M8.5 11.25H15.5" stroke="black" stroke-width="1.5" stroke-linecap="round"/>
</svg>
