<svg width="16" height="16" viewBox="0 0 16 16" fill="none" xmlns="http://www.w3.org/2000/svg">
<path d="M11.7571 7.20008H10.0622C10.0114 7.20022 9.96127 7.18849 9.91579 7.16583C9.8703 7.14317 9.83073 7.1102 9.80023 7.06956L7.37117 3.83904C7.32893 3.78313 7.27429 3.73779 7.21156 3.70659C7.14882 3.67539 7.0797 3.65917 7.00963 3.65922H6.59042C6.53703 3.65824 6.48485 3.67516 6.4422 3.70727C6.40233 3.73774 6.37344 3.78035 6.35991 3.82867C6.34637 3.87699 6.34892 3.9284 6.36717 3.97514L7.58077 7.0925C7.58625 7.1066 7.58839 7.12178 7.58703 7.13685C7.58566 7.15191 7.58082 7.16646 7.57289 7.17934C7.56496 7.19222 7.55416 7.2031 7.54132 7.21111C7.52849 7.21912 7.51397 7.22404 7.49891 7.22551L5.34922 7.43478C5.30604 7.43881 5.26257 7.43146 5.22313 7.41345C5.18368 7.39544 5.14965 7.36741 5.12442 7.33216L4.30367 6.1745C4.27628 6.13607 4.24009 6.10476 4.19812 6.08318C4.15616 6.06161 4.10963 6.0504 4.06244 6.05049H3.92291C3.89688 6.05023 3.87111 6.05565 3.84739 6.06635C3.82367 6.07706 3.80257 6.09281 3.78555 6.11249C3.76738 6.13375 3.7548 6.15919 3.74895 6.18653C3.74311 6.21387 3.74417 6.24224 3.75206 6.26906L4.10554 7.4881C4.11349 7.51564 4.11166 7.54508 4.10035 7.57142C4.08905 7.59776 4.06896 7.61937 4.04352 7.63258L3.73035 7.79007C3.69974 7.80547 3.67282 7.82729 3.65141 7.85404C3.63001 7.88079 3.61463 7.91185 3.60633 7.94509C3.59446 7.99466 3.59931 8.04676 3.62011 8.0933C3.64091 8.13983 3.67651 8.17819 3.72136 8.20241L4.04538 8.37882C4.07005 8.39236 4.08938 8.41388 4.1002 8.43985C4.11101 8.46582 4.11268 8.4947 4.10492 8.52174L3.75392 9.73149C3.74556 9.75814 3.74402 9.78647 3.74944 9.81387C3.75485 9.84128 3.76706 9.86689 3.78493 9.88836C3.80189 9.90812 3.82298 9.92391 3.84672 9.93462C3.87045 9.94533 3.89625 9.95071 3.92229 9.95037H4.06399C4.11109 9.95044 4.15752 9.93921 4.19938 9.91763C4.24125 9.89606 4.27733 9.86475 4.3046 9.82635L5.12473 8.66932C5.14999 8.63401 5.18407 8.60595 5.22357 8.58795C5.26308 8.56994 5.30661 8.56261 5.34984 8.5667L7.49643 8.77473C7.51155 8.77625 7.52611 8.78126 7.53897 8.78936C7.55183 8.79746 7.56263 8.80843 7.57054 8.82141C7.57844 8.83439 7.58322 8.84902 7.58451 8.86416C7.58581 8.8793 7.58357 8.89453 7.57798 8.90866L6.34112 12.0155C6.31739 12.0726 6.3165 12.1366 6.33864 12.1944C6.35611 12.2376 6.38613 12.2745 6.42482 12.3005C6.46351 12.3265 6.50909 12.3403 6.55569 12.3401H7.00963C7.07954 12.34 7.14848 12.3237 7.21104 12.2925C7.27361 12.2613 7.3281 12.216 7.37023 12.1603L9.80023 8.92975C9.83064 8.88923 9.87006 8.85634 9.91537 8.83369C9.96068 8.81103 10.0106 8.79923 10.0613 8.79922H11.7561C12.451 8.79922 12.9 8.48547 12.9 7.99965C12.9009 7.52872 12.4305 7.20008 11.7571 7.20008Z" fill="black"/>
<rect x="0.75" y="0.75" width="14.5" height="14.5" rx="2.25" stroke="black" stroke-width="1.5"/>
</svg>
