<svg width="34" height="34" viewBox="0 0 34 34" fill="none" xmlns="http://www.w3.org/2000/svg">
<path d="M19.0564 1.13736L20.8386 3.97351C21.1121 4.41018 21.5147 4.75091 21.9906 4.94847C22.4665 5.14603 22.992 5.19061 23.4944 5.07603L26.7605 4.32716C27.1609 4.23654 27.5778 4.24867 27.9722 4.36246C28.3667 4.47625 28.726 4.68796 29.0167 4.97793C29.3073 5.2679 29.5199 5.6267 29.6346 6.02091C29.7494 6.41512 29.7625 6.83197 29.6728 7.23263L28.9239 10.5056C28.8098 11.0072 28.8538 11.5319 29.05 12.0075C29.2462 12.4831 29.5849 12.8862 30.0196 13.1614L32.8626 14.9436C33.2108 15.1619 33.4978 15.4651 33.6967 15.8247C33.8956 16.1844 34 16.5886 34 16.9996C34 17.4105 33.8956 17.8148 33.6967 18.1744C33.4978 18.534 33.2108 18.8372 32.8626 19.0556L30.0196 20.8377C29.5849 21.1129 29.2462 21.516 29.05 21.9916C28.8538 22.4672 28.8098 22.9919 28.9239 23.4935L29.6728 26.7665C29.7645 27.1674 29.7527 27.5851 29.6387 27.9802C29.5247 28.3753 29.3121 28.735 29.021 29.0255C28.7298 29.316 28.3696 29.5277 27.9742 29.6408C27.5788 29.7538 27.1612 29.7646 26.7605 29.672L23.4944 28.9231C22.992 28.8085 22.4665 28.8531 21.9906 29.0506C21.5147 29.2482 21.1121 29.589 20.8386 30.0257L19.0564 32.8687C18.8369 33.2153 18.5332 33.5007 18.1738 33.6985C17.8143 33.8963 17.4107 34 17.0004 34C16.5901 34 16.1865 33.8963 15.8271 33.6985C15.4676 33.5007 15.164 33.2153 14.9444 32.8687L13.1623 30.0257C12.8888 29.589 12.4862 29.2482 12.0103 29.0506C11.5344 28.8531 11.0088 28.8085 10.5065 28.9231L7.23348 29.672C6.83299 29.7652 6.41537 29.7547 6.02002 29.6417C5.62467 29.5287 5.26464 29.3168 4.97389 29.0261C4.68314 28.7353 4.47128 28.3753 4.35827 27.98C4.24526 27.5846 4.23484 27.167 4.32801 26.7665L5.07692 23.4935C5.19149 22.9912 5.1469 22.4656 4.94934 21.9897C4.75178 21.5138 4.41103 21.1112 3.97435 20.8377L1.13131 19.0556C0.784734 18.836 0.49928 18.5324 0.301492 18.1729C0.103704 17.8135 0 17.4098 0 16.9996C0 16.5893 0.103704 16.1857 0.301492 15.8262C0.49928 15.4668 0.784734 15.1631 1.13131 14.9436L3.97435 13.1614C4.41103 12.8879 4.75178 12.4853 4.94934 12.0094C5.1469 11.5335 5.19149 11.008 5.07692 10.5056L4.32801 7.23263C4.23683 6.83241 4.24866 6.41558 4.36237 6.02116C4.47609 5.62675 4.68797 5.26763 4.97822 4.97738C5.26848 4.68713 5.62762 4.4752 6.02203 4.36149C6.41644 4.24777 6.83325 4.23598 7.23348 4.32716L10.5065 5.07603C11.0088 5.19061 11.5344 5.14603 12.0103 4.94847C12.4862 4.75091 12.8888 4.41018 13.1623 3.97351L14.9444 1.13736C15.1628 0.78921 15.466 0.502226 15.8256 0.303291C16.1852 0.104355 16.5895 0 17.0004 0C17.4114 0 17.8156 0.104355 18.1753 0.303291C18.5349 0.502226 18.8381 0.78921 19.0564 1.13736Z" fill="#8248FF"/>
</svg>
