<svg width="24" height="24" viewBox="0 0 24 24" fill="none" xmlns="http://www.w3.org/2000/svg">
<path d="M15 12C15 13.6569 13.6569 15 12 15C10.3431 15 9 13.6569 9 12C9 10.3431 10.3431 9 12 9C13.6569 9 15 10.3431 15 12Z" stroke="black" stroke-width="1.5"/>
<path d="M9.50032 4.5C9.50032 3.67157 10.1719 3 11.0003 3H13.0003C13.8287 3 14.5003 3.67157 14.5003 4.5V5.07182C14.5003 6.22652 15.7503 6.94821 16.7503 6.37086L17.2455 6.08496C17.963 5.67075 18.8803 5.91656 19.2946 6.634L20.2946 8.36605C20.7088 9.08349 20.463 10.0009 19.7455 10.4151L19.2503 10.701C18.2503 11.2783 18.2503 12.7217 19.2503 13.2991L19.7455 13.585C20.463 13.9992 20.7088 14.9166 20.2946 15.634L19.2946 17.366C18.8803 18.0835 17.963 18.3293 17.2455 17.9151L16.7503 17.6292C15.7503 17.0518 14.5003 17.7735 14.5003 18.9282V19.5C14.5003 20.3284 13.8287 21 13.0003 21H11.0003C10.1719 21 9.50032 20.3284 9.50032 19.5V18.9282C9.50032 17.7735 8.25032 17.0518 7.25032 17.6292L6.75513 17.9151C6.03769 18.3293 5.12031 18.0835 4.7061 17.366L3.7061 15.634C3.29188 14.9166 3.53769 13.9992 4.25513 13.585L4.75032 13.2991C5.75032 12.7217 5.75033 11.2783 4.75033 10.701L4.25513 10.4151C3.53769 10.0009 3.29188 9.08349 3.7061 8.36605L4.7061 6.634C5.12031 5.91656 6.0377 5.67075 6.75513 6.08496L7.25032 6.37085C8.25032 6.94821 9.50032 6.22652 9.50032 5.07182V4.5Z" stroke="black" stroke-width="1.5"/>
</svg>
