<svg width="48" height="48" viewBox="0 0 48 48" fill="none" xmlns="http://www.w3.org/2000/svg">
<path d="M35 41C36.1046 41 37 40.1046 37 39V9C37 7.89543 36.1046 7 35 7H20.1955C19.6592 7 19.1454 7.21539 18.7694 7.59782L11.5739 14.9163C11.2061 15.2904 11 15.794 11 16.3185V39C11 40.1046 11.8954 41 13 41H35Z" stroke="black" stroke-width="1.5"/>
<path d="M29.6992 23C29.6992 26.866 26.5652 30 22.6992 30C18.8332 30 15.6992 26.866 15.6992 23C15.6992 19.134 18.8332 16 22.6992 16C26.5652 16 29.6992 19.134 29.6992 23Z" stroke="black" stroke-width="1.5" stroke-linecap="round"/>
<path d="M27.6992 28L32.2965 32.5973" stroke="black" stroke-width="1.5" stroke-linecap="round"/>
<path d="M14.5 33V36.5C14.5 37.0523 14.9477 37.5 15.5 37.5H19" stroke="black" stroke-width="1.5" stroke-linecap="round"/>
<path d="M33.5 14.5V11C33.5 10.4477 33.0523 10 32.5 10H29" stroke="black" stroke-width="1.5" stroke-linecap="round"/>
</svg>
