<svg width="24" height="24" viewBox="0 0 24 24" fill="none" xmlns="http://www.w3.org/2000/svg">
<path fill-rule="evenodd" clip-rule="evenodd" d="M11.3074 2.89867C11.6154 2.36581 12.3846 2.36581 12.6926 2.89867L22.1727 19.2992C22.481 19.8325 22.0961 20.4996 21.4801 20.4996H2.51995C1.90393 20.4996 1.51904 19.8325 1.82733 19.2992L11.3074 2.89867ZM12 8.74954C12.4142 8.74954 12.75 9.08533 12.75 9.49954V13.4995C12.75 13.9138 12.4142 14.2495 12 14.2495C11.5858 14.2495 11.25 13.9138 11.25 13.4995V9.49954C11.25 9.08533 11.5858 8.74954 12 8.74954ZM12 15.7495C12.5523 15.7495 13 16.1973 13 16.7495C13 17.3018 12.5523 17.7495 12 17.7495C11.4477 17.7495 11 17.3018 11 16.7495C11 16.1973 11.4477 15.7495 12 15.7495Z" fill="black"/>
</svg>
