<svg width="16" height="16" viewBox="0 0 16 16" fill="none" xmlns="http://www.w3.org/2000/svg">
<path d="M8.40799 14.6331C8.03383 15.027 7.51441 15.25 6.97116 15.25C6 15.25 5.5 14 6.15078 12.4848L6.6822 11.25H2.78078C1.64228 11.25 0.806902 10.18 1.08303 9.07551L2.48835 3.45428C2.73875 2.45266 3.63871 1.75 4.67115 1.74999L11 1.74995C11.2761 1.74995 11.5 1.97381 11.5 2.24995V11.0559C11.5 11.1808 11.4533 11.3011 11.3691 11.3933L8.40799 14.6331Z" fill="black"/>
<path fill-rule="evenodd" clip-rule="evenodd" d="M14.75 10C14.75 10.6904 14.1904 11.25 13.5 11.25H13.3C13.1343 11.25 13 11.1157 13 10.95V2.04998C13 1.88428 13.1343 1.74995 13.3 1.74998L13.5 1.75C14.1903 1.75002 14.75 2.30966 14.75 3V10Z" fill="black"/>
</svg>
