<svg width="24" height="24" viewBox="0 0 24 24" fill="none" xmlns="http://www.w3.org/2000/svg">
<path d="M17.5 21C18.3284 21 19 20.3284 19 19.5V4.5C19 3.67157 18.3284 3 17.5 3H10.1213C9.7235 3 9.34196 3.15803 9.06066 3.43934L5.43934 7.06066C5.15804 7.34196 5 7.7235 5 8.12132V19.5C5 20.3284 5.67157 21 6.5 21H17.5Z" stroke="black" stroke-width="1.5"/>
<path d="M12 10V18" stroke="black" stroke-width="1.5" stroke-linecap="round"/>
<path d="M12 14H8" stroke="black" stroke-width="1.5" stroke-linecap="round"/>
<path d="M8 10.5C8 10.2239 8.22386 10 8.5 10H15.5C15.7761 10 16 10.2239 16 10.5V17.5C16 17.7761 15.7761 18 15.5 18H8.5C8.22386 18 8 17.7761 8 17.5V10.5Z" stroke="black" stroke-width="1.5"/>
</svg>
