<svg width="16" height="16" viewBox="0 0 16 16" fill="none" xmlns="http://www.w3.org/2000/svg">
<path d="M13.4998 10C13.4998 10.2761 13.2759 10.5 12.9998 10.5H10.7998V2.5H12.9998C13.2759 2.5 13.4998 2.72386 13.4998 3V10Z" stroke="black" stroke-width="1.5"/>
<path d="M10.8 2.5V9.70145C10.8 10.2141 10.6031 10.7072 10.25 11.0789L7.36432 14.1165C7.1317 14.3614 6.80876 14.5 6.47102 14.5C5.58581 14.5 4.98942 13.5944 5.3391 12.7811L6.26 10.6395C6.28838 10.5735 6.23998 10.5 6.16814 10.5H2.28077C1.63019 10.5 1.15284 9.88861 1.31062 9.25746L2.71594 3.6362C2.88288 2.96845 3.48285 2.5 4.17115 2.5H10.8Z" stroke="black" stroke-width="1.5"/>
</svg>
