<svg width="24" height="24" viewBox="0 0 24 24" fill="none" xmlns="http://www.w3.org/2000/svg">
<path d="M15.5 19H4.5C3.67157 19 3 18.3284 3 17.5V6.5C3 5.67157 3.67157 5 4.5 5H15.5C16.3284 5 17 5.67157 17 6.5V9.3557C17 9.42552 17.0697 9.47385 17.1351 9.44933L20.3244 8.25334C20.6513 8.13076 21 8.3724 21 8.7215V15.2785C21 15.6276 20.6513 15.8692 20.3244 15.7467L17.1351 14.5507C17.0697 14.5262 17 14.5745 17 14.6443V17.5C17 18.3284 16.3284 19 15.5 19Z" stroke="black" stroke-width="1.5"/>
<path d="M13.3 11.9998L8.5 14.6998L8.5 9.2998L13.3 11.9998Z" stroke="black" stroke-width="1.5" stroke-linejoin="round"/>
</svg>
